<?xml version="1.0" encoding="UTF-8" standalone="no"?>
<!-- Created with Inkscape (http://www.inkscape.org/) -->

<svg
   xmlns:dc="http://purl.org/dc/elements/1.1/"
   xmlns:cc="http://creativecommons.org/ns#"
   xmlns:rdf="http://www.w3.org/1999/02/22-rdf-syntax-ns#"
   xmlns:svg="http://www.w3.org/2000/svg"
   xmlns="http://www.w3.org/2000/svg"
   xmlns:sodipodi="http://sodipodi.sourceforge.net/DTD/sodipodi-0.dtd"
   xmlns:inkscape="http://www.inkscape.org/namespaces/inkscape"
   width="712"
   height="408"
   viewBox="0 0 188.38333 107.95"
   version="1.1"
   id="svg8"
   inkscape:version="0.92.2 (unknown)"
   sodipodi:docname="GOCS.svg">
  <defs
     id="defs2">
    <inkscape:path-effect
       is_visible="true"
       id="path-effect961"
       effect="spiro" />
    <inkscape:path-effect
       is_visible="true"
       id="path-effect957"
       effect="spiro" />
  </defs>
  <sodipodi:namedview
     id="base"
     pagecolor="#ffffff"
     bordercolor="#666666"
     borderopacity="1.0"
     inkscape:pageopacity="0.0"
     inkscape:pageshadow="2"
     inkscape:zoom="1"
     inkscape:cx="366.99088"
     inkscape:cy="205.08918"
     inkscape:document-units="px"
     inkscape:current-layer="layer2"
     showgrid="false"
     showborder="false"
     inkscape:measure-start="-1535.84,528.916"
     inkscape:measure-end="-975.807,791.96"
     inkscape:snap-global="false"
     fit-margin-top="0"
     fit-margin-left="0"
     fit-margin-right="0"
     fit-margin-bottom="0"
     units="px"
     inkscape:window-width="1366"
     inkscape:window-height="705"
     inkscape:window-x="0"
     inkscape:window-y="30"
     inkscape:window-maximized="1" />
  <metadata
     id="metadata5">
    <rdf:RDF>
      <cc:Work
         rdf:about="">
        <dc:format>image/svg+xml</dc:format>
        <dc:type
           rdf:resource="http://purl.org/dc/dcmitype/StillImage" />
        <dc:title></dc:title>
      </cc:Work>
    </rdf:RDF>
  </metadata>
  <g
     inkscape:groupmode="layer"
     id="layer2"
     inkscape:label="Layer 2"
     transform="translate(175.68333,-118.40624)">
    <ellipse
       style="opacity:0.98999999;fill:#d3bc5f;fill-opacity:1;stroke:none;stroke-width:0.26458332;stroke-linecap:round;stroke-linejoin:round;stroke-miterlimit:4;stroke-dasharray:none;stroke-opacity:1"
       id="path1245"
       cx="40.216667"
       cy="118.93542"
       rx="1.0583333"
       ry="0.26458332" />
    <g
       id="g3418">
      <rect
         y="118.40624"
         x="-175.68333"
         height="107.95"
         width="188.38333"
         id="rect1331"
         style="opacity:1;fill:#ffc74d;fill-opacity:1;stroke:none;stroke-width:0.25808373;stroke-linecap:round;stroke-linejoin:round;stroke-miterlimit:4;stroke-dasharray:none;stroke-opacity:1" />
      <g
         id="g1329"
         transform="translate(-23.093926,63.635565)">
        <g
           style="fill:#ff2a2a"
           transform="translate(-82.319016,-1.4967094)"
           id="g1198">
          <rect
             style="opacity:0.98999999;fill:#ff2a2a;fill-opacity:1;stroke:none;stroke-width:0.24544793;stroke-linecap:round;stroke-linejoin:round;stroke-miterlimit:4;stroke-dasharray:none;stroke-opacity:1"
             id="rect1150"
             width="17.227833"
             height="1.849007"
             x="-0.68207878"
             y="109.59577"
             ry="0.92450351"
             transform="matrix(0.86215839,0.50663884,-0.49339041,0.86980797,0,0)"
             inkscape:transform-center-x="-1.5812868"
             inkscape:transform-center-y="-4.5808001" />
          <rect
             style="opacity:0.98999999;fill:#ff2a2a;fill-opacity:1;stroke:none;stroke-width:0.26097709;stroke-linecap:round;stroke-linejoin:round;stroke-miterlimit:4;stroke-dasharray:none;stroke-opacity:1"
             id="rect1154"
             width="19.476686"
             height="1.8490138"
             x="75.488327"
             y="-21.665142"
             ry="0.9245069"
             transform="matrix(0.00896714,0.99995979,0.99998298,0.00583422,0,0)"
             inkscape:transform-center-x="4.7599773"
             inkscape:transform-center-y="-1.0279876" />
          <path
             inkscape:connector-curvature="0"
             id="path1165"
             style="opacity:0.98999999;fill:#ff2a2a;fill-opacity:1;stroke:none;stroke-width:0.26458332;stroke-linecap:round;stroke-linejoin:round;stroke-miterlimit:4;stroke-dasharray:none;stroke-opacity:1"
             d="m 17.727082,116.55417 a 1.3229166,1.3229166 0 0 1 -1.322917,1.32292 1.3229166,1.3229166 0 0 1 -1.322916,-1.32292 1.3229166,1.3229166 0 0 1 1.322916,-1.32292 1.3229166,1.3229166 0 0 1 1.322917,1.32292 z m -7.079507,-1.23904 -7.1777244,0.17133 c -0.5120287,0.0122 -0.8997726,0.43367 -0.8693806,0.94494 0.030391,0.51127 0.4670694,0.91304 0.9790981,0.90081 l 7.1777249,-0.17133 c 0.512029,-0.0122 0.899773,-0.43366 0.869381,-0.94493 -0.03039,-0.51128 -0.46707,-0.91304 -0.979099,-0.90082 z" />
          <path
             d="m -57.197035,116.55417 a 1.3229166,1.3229166 0 0 0 1.322917,1.32292 1.3229166,1.3229166 0 0 0 1.322916,-1.32292 1.3229166,1.3229166 0 0 0 -1.322916,-1.32292 1.3229166,1.3229166 0 0 0 -1.322917,1.32292 z m 7.079507,-1.23904 7.177724,0.17133 c 0.512029,0.0122 0.899773,0.43367 0.869381,0.94494 -0.03039,0.51127 -0.46707,0.91304 -0.979098,0.90081 l -7.177725,-0.17133 c -0.512029,-0.0122 -0.899773,-0.43366 -0.869381,-0.94493 0.03039,-0.51128 0.46707,-0.91304 0.979099,-0.90082 z"
             style="opacity:0.98999999;fill:#ff2a2a;fill-opacity:1;stroke:none;stroke-width:0.26458332;stroke-linecap:round;stroke-linejoin:round;stroke-miterlimit:4;stroke-dasharray:none;stroke-opacity:1"
             id="path1170"
             inkscape:connector-curvature="0" />
          <path
             inkscape:connector-curvature="0"
             id="path1172"
             style="opacity:0.98999999;fill:#ff2a2a;fill-opacity:1;stroke:none;stroke-width:0.26458332;stroke-linecap:round;stroke-linejoin:round;stroke-miterlimit:4;stroke-dasharray:none;stroke-opacity:1"
             d="m -37.83503,85.789807 a 1.3229166,1.3229166 0 0 0 -0.484223,1.807139 1.3229166,1.3229166 0 0 0 1.807139,0.48422 1.3229166,1.3229166 0 0 0 0.484225,-1.807139 1.3229166,1.3229166 0 0 0 -1.807141,-0.48422 z m 3.588156,4.299871 4.072568,5.912972 c 0.290538,0.421798 0.176736,0.983073 -0.255122,1.258432 -0.431851,0.275359 -1.01341,0.157474 -1.303916,-0.264382 l -4.072569,-5.912973 c -0.290539,-0.421794 -0.176745,-0.983063 0.25511,-1.258426 0.43186,-0.275368 1.013409,-0.157473 1.303933,0.264334 z" />
          <path
             inkscape:connector-curvature="0"
             id="path1180"
             style="opacity:0.98999999;fill:#ff2a2a;fill-opacity:1;stroke:none;stroke-width:0.26458332;stroke-linecap:round;stroke-linejoin:round;stroke-miterlimit:4;stroke-dasharray:none;stroke-opacity:1"
             d="m -3.8109186,90.975726 -4.16224,5.850198 c -0.2969022,0.417342 -0.8632327,0.50249 -1.2697557,0.190941 -0.40652,-0.311544 -0.494774,-0.89833 -0.197805,-1.315662 l 4.1622403,-5.850199 c 0.2968982,-0.417343 0.8632204,-0.502496 1.2697453,-0.19095 0.4065325,0.311548 0.494773,0.898329 0.1978576,1.315662 z m 2.4562491,-5.184807 a 1.3229166,1.3229166 0 0 0 -1.8637347,0.163451 1.3229166,1.3229166 0 0 0 0.163454,1.863734 1.3229166,1.3229166 0 0 0 1.8637352,-0.16345 1.3229166,1.3229166 0 0 0 -0.1634545,-1.863735 z" />
          <rect
             inkscape:transform-center-y="-4.5808034"
             inkscape:transform-center-x="1.5812847"
             transform="matrix(-0.86215839,0.50663884,0.49339041,0.86980797,0,0)"
             ry="0.92450351"
             y="89.419159"
             x="33.957539"
             height="1.849007"
             width="17.227833"
             id="rect1182"
             style="opacity:0.98999999;fill:#ff2a2a;fill-opacity:1;stroke:none;stroke-width:0.24544793;stroke-linecap:round;stroke-linejoin:round;stroke-miterlimit:4;stroke-dasharray:none;stroke-opacity:1" />
        </g>
        <path
           style="fill:#ff2a2a;stroke:none;stroke-width:0.26458332px;stroke-linecap:butt;stroke-linejoin:miter;stroke-opacity:1"
           d="m -118.68271,124.45015 c 9.49086,1.23109 20.066974,1.57852 33.072921,0 -0.110154,0 0.248501,-7.89031 0,-11.37708 -1.246185,-17.485454 -31.297161,-17.82109 -33.337501,0 -0.43345,3.78594 0.43388,11.43351 0.26458,11.37708 z"
           id="path1144"
           inkscape:connector-curvature="0"
           sodipodi:nodetypes="ccssc" />
        <rect
           style="opacity:0.98999999;fill:#ff2a2a;fill-opacity:1;stroke:none;stroke-width:0.26709092;stroke-linecap:round;stroke-linejoin:round;stroke-miterlimit:4;stroke-dasharray:none;stroke-opacity:1"
           id="rect1146"
           width="41.660469"
           height="7.9412503"
           x="-123.12529"
           y="126.63512"
           ry="2.0965936" />
        <rect
           ry="2.0909588"
           y="135.70375"
           x="-126.23105"
           height="7.9199076"
           width="47.87199"
           id="rect1148"
           style="opacity:0.98999999;fill:#280b0b;fill-opacity:1;stroke:none;stroke-width:0.28592587;stroke-linecap:round;stroke-linejoin:round;stroke-miterlimit:4;stroke-dasharray:none;stroke-opacity:1" />
        <path
           style="fill:#ffffff;stroke:none;stroke-width:0.26458332;stroke-linecap:butt;stroke-linejoin:miter;stroke-miterlimit:4;stroke-dasharray:none;stroke-opacity:1"
           d="m -113.95871,121.97123 v 1.35639 h -3.0402 c 0,0 -0.53969,-6.53097 0,-9.72861 0.32413,-1.92043 0.86009,-3.88367 1.91766,-5.51911 1.06001,-1.63921 2.65968,-2.89923 4.25627,-4.02241 1.07211,-0.75422 2.24105,-1.4407 3.50791,-1.77734 3.70464,-0.25188 2.97532,0.0672 0.32741,0.88864 -1.12277,0.37991 -2.20954,0.91042 -3.18051,1.59025 -1.319,0.9235 -2.57888,2.00572 -3.50791,3.32083 -0.95446,1.35111 -1.67671,2.91684 -2.0112,4.5369 -0.62739,3.03862 0.0935,9.30766 0.0935,9.30766 z"
           id="path1205"
           inkscape:connector-curvature="0"
           sodipodi:nodetypes="cccsaaccaascc" />
        <rect
           style="opacity:0.98999999;fill:#ffffff;fill-opacity:1;stroke:none;stroke-width:0.24642777;stroke-linecap:round;stroke-linejoin:round;stroke-miterlimit:4;stroke-dasharray:none;stroke-opacity:1"
           id="rect1207"
           width="1.190625"
           height="4.7624998"
           x="-121.45935"
           y="128.30266"
           ry="0.51641566" />
        <path
           style="opacity:0.11300001;fill:#000000;fill-opacity:1;stroke:none;stroke-width:1.08066463;stroke-linecap:round;stroke-linejoin:round;stroke-miterlimit:4;stroke-dasharray:none;stroke-opacity:1"
           d="m -385.43945,377.32227 c -2.77229,-0.0147 -5.54726,0.11513 -8.30469,0.38671 a 69.27439,121.43918 14.036846 0 1 26.05664,96.25391 c 13.89505,-0.55397 28.54513,-1.70893 44.12305,-3.59961 -0.41633,0 0.93921,-29.82166 0,-43 -2.355,-33.04338 -31.92769,-49.88245 -61.875,-50.04101 z m 17.30664,101.29882 a 69.27439,121.43918 14.036846 0 1 -6.0293,30.01368 h 58.33984 c 4.38997,0 7.92383,-3.53384 7.92383,-7.92383 v -14.16602 c 0,-4.38996 -3.53386,-7.92383 -7.92383,-7.92383 z m -7.27149,34.27539 a 69.27439,121.43918 14.036846 0 1 -11.55078,29.9336 h 82.89258 c 4.37817,0 7.90234,-3.52613 7.90234,-7.9043 v -14.12695 c 0,-4.37817 -3.52417,-7.90235 -7.90234,-7.90235 z"
           transform="scale(0.26458333)"
           id="rect1286"
           inkscape:connector-curvature="0" />
      </g>
      <g
         style="fill:#000000"
         id="g3159">
        <path
           id="path3124"
           style="font-style:normal;font-variant:normal;font-weight:normal;font-stretch:normal;font-size:16.46384811px;line-height:1.25;font-family:Intro;-inkscape-font-specification:'Intro , Normal';font-variant-ligatures:normal;font-variant-caps:normal;font-variant-numeric:normal;font-feature-settings:normal;text-align:start;letter-spacing:0px;word-spacing:0px;writing-mode:lr-tb;text-anchor:start;fill:#000000;fill-opacity:1;stroke:none;stroke-width:0.41159618"
           d="m -65.647085,169.23048 h 4.181818 c 0,-0.98783 0,-1.66285 0,-2.63422 -2.354331,0 -4.823908,0 -7.178238,0 v 11.5247 c 1.004295,0 2.008589,0 2.99642,0 z"
           inkscape:connector-curvature="0" />
        <path
           id="path3126"
           style="font-style:normal;font-variant:normal;font-weight:normal;font-stretch:normal;font-size:16.46384811px;line-height:1.25;font-family:Intro;-inkscape-font-specification:'Intro , Normal';font-variant-ligatures:normal;font-variant-caps:normal;font-variant-numeric:normal;font-feature-settings:normal;text-align:start;letter-spacing:0px;word-spacing:0px;writing-mode:lr-tb;text-anchor:start;fill:#000000;fill-opacity:1;stroke:none;stroke-width:0.41159618"
           d="m -48.301649,172.37507 c 0,-7.9685 -11.821043,-7.9685 -11.821043,0 0,7.98497 11.821043,7.98497 11.821043,0 z m -8.791695,0 c 0,-4.14889 5.778811,-4.14889 5.778811,0 0,4.18182 -5.778811,4.18182 -5.778811,0 z"
           inkscape:connector-curvature="0" />
        <path
           id="path3128"
           style="font-style:normal;font-variant:normal;font-weight:normal;font-stretch:normal;font-size:16.46384811px;line-height:1.25;font-family:Intro;-inkscape-font-specification:'Intro , Normal';font-variant-ligatures:normal;font-variant-caps:normal;font-variant-numeric:normal;font-feature-settings:normal;text-align:start;letter-spacing:0px;word-spacing:0px;writing-mode:lr-tb;text-anchor:start;fill:#000000;fill-opacity:1;stroke:none;stroke-width:0.41159618"
           d="m -34.654147,172.45739 v 5.66357 c 1.020759,0 2.041517,0 3.045812,0 v -11.57409 h -1.07015 l -5.828202,5.69649 v -5.6471 c -1.004295,0 -2.00859,0 -3.012885,0 v 11.54116 h 1.053687 z"
           inkscape:connector-curvature="0" />
        <path
           id="path3130"
           style="font-style:normal;font-variant:normal;font-weight:normal;font-stretch:normal;font-size:16.46384811px;line-height:1.25;font-family:Intro;-inkscape-font-specification:'Intro , Normal';font-variant-ligatures:normal;font-variant-caps:normal;font-variant-numeric:normal;font-feature-settings:normal;text-align:start;letter-spacing:0px;word-spacing:0px;writing-mode:lr-tb;text-anchor:start;fill:#000000;fill-opacity:1;stroke:none;stroke-width:0.41159618"
           d="m -15.59493,178.12096 v -11.5247 h -2.996421 v 4.70866 h -0.576234 c -2.288475,0 -2.43665,-1.33357 -2.43665,-3.29277 v -1.41589 h -3.029348 v 1.41589 c 0,4.05011 1.448819,6.09163 5.449534,6.09163 h 0.592698 v 4.01718 z"
           inkscape:connector-curvature="0" />
        <path
           id="path3132"
           style="font-style:normal;font-variant:normal;font-weight:normal;font-stretch:normal;font-size:16.46384811px;line-height:1.25;font-family:Intro;-inkscape-font-specification:'Intro , Normal';font-variant-ligatures:normal;font-variant-caps:normal;font-variant-numeric:normal;font-feature-settings:normal;text-align:start;letter-spacing:0px;word-spacing:0px;writing-mode:lr-tb;text-anchor:start;fill:#000000;fill-opacity:1;stroke:none;stroke-width:0.41159618"
           d="m -13.351474,172.35861 c 0.01646,3.9184 2.979957,5.89406 5.9105217,5.87759 2.4531133,0 5.0379375,-1.28418 5.4659975,-4.54402 -1.0042947,0 -1.9098063,0 -2.8976372,0 -0.3128131,1.23479 -1.3171079,1.86042 -2.5683603,1.86042 -1.7451679,-0.0165 -2.8647097,-1.49821 -2.8647097,-3.19399 0,-1.90981 1.1360056,-3.21045 2.8647097,-3.21045 1.2347886,0 2.1073725,0.52684 2.5189687,1.69578 1.0042948,0 1.8933426,0 2.8976373,0 -0.4445239,-3.07874 -3.029348,-4.37939 -5.416606,-4.37939 -2.9305647,0 -5.8940577,1.97566 -5.9105217,5.89406 z"
           inkscape:connector-curvature="0" />
      </g>
    </g>
  </g>
</svg>
