<?xml version="1.0" encoding="UTF-8" standalone="no"?>
<!-- Created with Inkscape (http://www.inkscape.org/) -->

<svg
   xmlns:dc="http://purl.org/dc/elements/1.1/"
   xmlns:cc="http://creativecommons.org/ns#"
   xmlns:rdf="http://www.w3.org/1999/02/22-rdf-syntax-ns#"
   xmlns:svg="http://www.w3.org/2000/svg"
   xmlns="http://www.w3.org/2000/svg"
   xmlns:sodipodi="http://sodipodi.sourceforge.net/DTD/sodipodi-0.dtd"
   xmlns:inkscape="http://www.inkscape.org/namespaces/inkscape"
   width="250.00002"
   height="250.00002"
   viewBox="0 0 66.145836 66.145836"
   version="1.1"
   id="svg8"
   inkscape:version="0.92.2 (unknown)"
   sodipodi:docname="briefcase.svg">
  <defs
     id="defs2" />
  <sodipodi:namedview
     id="base"
     pagecolor="#ffffff"
     bordercolor="#666666"
     borderopacity="1.0"
     inkscape:pageopacity="0.0"
     inkscape:pageshadow="2"
     inkscape:zoom="1"
     inkscape:cx="123.74753"
     inkscape:cy="126.64702"
     inkscape:document-units="px"
     inkscape:current-layer="layer1"
     showgrid="false"
     showborder="false"
     inkscape:snap-global="false"
     fit-margin-top="0"
     fit-margin-left="0"
     fit-margin-right="0"
     fit-margin-bottom="0"
     inkscape:window-width="1366"
     inkscape:window-height="705"
     inkscape:window-x="0"
     inkscape:window-y="30"
     inkscape:window-maximized="1"
     units="px" />
  <metadata
     id="metadata5">
    <rdf:RDF>
      <cc:Work
         rdf:about="">
        <dc:format>image/svg+xml</dc:format>
        <dc:type
           rdf:resource="http://purl.org/dc/dcmitype/StillImage" />
        <dc:title></dc:title>
      </cc:Work>
    </rdf:RDF>
  </metadata>
  <g
     inkscape:label="Layer 1"
     inkscape:groupmode="layer"
     id="layer1"
     transform="translate(28.330451,-105.04583)">
    <g
       id="g2387">
      <circle
         r="33.072918"
         cy="138.11874"
         cx="4.7424669"
         id="path2316"
         style="opacity:1;fill:#f2bc53;fill-opacity:1;stroke:none;stroke-width:0.37318215;stroke-linecap:round;stroke-linejoin:round;stroke-miterlimit:4;stroke-dasharray:none;stroke-opacity:1" />
      <g
         transform="matrix(0.48565023,0,0,0.48565023,-31.388552,74.444941)"
         id="g2312">
        <g
           id="g2296">
          <g
             transform="translate(-3.367596,-11.818686)"
             id="g2242">
            <path
               style="opacity:1;fill:#d35f5f;fill-opacity:1;stroke:none;stroke-width:0.26458332px;stroke-linecap:butt;stroke-linejoin:miter;stroke-opacity:1"
               d="M 77.690349,97.002347 64.12632,97.189416 c -7.605189,2.094449 -10.790611,6.525164 -11.31869,13.095844 2.961029,0.67358 5.456616,0.57194 7.670332,0 0.53934,-2.52486 1.671129,-4.4973 4.677235,-5.61258 h 12.535152 12.534635 c 3.006106,1.11528 4.137895,3.08772 4.677234,5.61258 2.213716,0.57194 4.70982,0.67358 7.670852,0 -0.52808,-6.57068 -3.713505,-11.001395 -11.318691,-13.095844 z"
               id="path2225"
               inkscape:connector-curvature="0" />
            <path
               inkscape:connector-curvature="0"
               id="path2234"
               d="m 78.219515,100.17734 -13.708258,0.13668 c -7.686057,1.53025 -10.90535,5.29659 -11.439044,10.09727 2.992514,0.49213 4.720887,0.55016 6.958142,0.13229 0.545075,-2.21169 2.482649,-5.47625 5.520719,-5.95276 h 12.668441 12.667919 c 3.03807,1.14143 3.520436,3.71395 4.06551,5.55588 2.237255,0.41787 4.627606,0.35984 7.620126,-0.13229 -0.5337,-4.80068 -2.959242,-8.17014 -10.645295,-9.70039 z"
               style="opacity:1;fill:#bc3636;fill-opacity:1;stroke:none;stroke-width:0.22735541px;stroke-linecap:butt;stroke-linejoin:miter;stroke-opacity:1"
               sodipodi:nodetypes="ccccccccccc" />
          </g>
          <g
             transform="translate(-2.9934216,-10.877536)"
             id="g2248">
            <rect
               style="opacity:1;fill:#6c5252;fill-opacity:1;stroke:none;stroke-width:0.79374999;stroke-linecap:round;stroke-linejoin:round;stroke-miterlimit:4;stroke-dasharray:none;stroke-opacity:1"
               id="rect2198"
               width="91.810417"
               height="70.643745"
               x="31.485415"
               y="110.73333"
               ry="6.8791666" />
            <path
               inkscape:connector-curvature="0"
               id="path2232"
               d="m 38.055232,113.90829 c -3.815419,0 -6.887108,3.1601 -6.887108,7.08535 v 20.94653 c 30.879358,5.46359 61.505543,5.18379 91.915836,0.002 v -20.94808 c 0,-3.92525 -3.07169,-7.08535 -6.88711,-7.08535 z"
               style="opacity:1;fill:#483737;fill-opacity:1;stroke:none;stroke-width:0.80601436;stroke-linecap:round;stroke-linejoin:round;stroke-miterlimit:4;stroke-dasharray:none;stroke-opacity:1" />
            <path
               style="opacity:1;fill:#ac9393;fill-opacity:1;stroke:none;stroke-width:0.81753278;stroke-linecap:round;stroke-linejoin:round;stroke-miterlimit:4;stroke-dasharray:none;stroke-opacity:1"
               d="m 37.195147,109.67496 c -3.925247,0 -7.085356,3.1601 -7.085356,7.08535 v 20.94653 c 31.768232,5.46359 63.276004,5.18379 94.561669,0.002 v -20.94808 c 0,-3.92525 -3.16011,-7.08535 -7.08536,-7.08535 z"
               id="rect2200"
               inkscape:connector-curvature="0" />
            <path
               inkscape:connector-curvature="0"
               id="path2230"
               d="m 37.195147,109.67498 c -3.925247,0 -7.085356,2.71627 -7.085356,6.09023 v 18.00463 c 31.768232,4.69624 63.276004,4.45574 94.561669,0.001 v -18.00597 c 0,-3.37396 -3.16011,-6.09023 -7.08536,-6.09023 z"
               style="opacity:1;fill:#6c5252;fill-opacity:1;stroke:none;stroke-width:0.75795126;stroke-linecap:round;stroke-linejoin:round;stroke-miterlimit:4;stroke-dasharray:none;stroke-opacity:1" />
          </g>
        </g>
        <g
           id="g2258"
           transform="translate(-2.9934187,-11.010026)">
          <rect
             style="opacity:1;fill:#483737;fill-opacity:1;stroke:none;stroke-width:0.35272372;stroke-linecap:round;stroke-linejoin:round;stroke-miterlimit:4;stroke-dasharray:none;stroke-opacity:1"
             id="rect2236"
             width="12.96458"
             height="17.197916"
             x="70.908333"
             y="135.86876"
             ry="3.0565805" />
          <g
             id="g2252">
            <rect
               style="opacity:1;fill:#d35f5f;fill-opacity:1;stroke:none;stroke-width:0.35272372;stroke-linecap:round;stroke-linejoin:round;stroke-miterlimit:4;stroke-dasharray:none;stroke-opacity:1"
               id="rect2209"
               width="12.96458"
               height="17.197916"
               x="70.908333"
               y="134.28127"
               ry="3.0565805" />
            <rect
               ry="0"
               y="138.5146"
               x="74.347916"
               height="8.7312489"
               width="6.0854135"
               id="rect2211"
               style="opacity:1;fill:#bc3737;fill-opacity:1;stroke:none;stroke-width:0.17218715;stroke-linecap:round;stroke-linejoin:round;stroke-miterlimit:4;stroke-dasharray:none;stroke-opacity:1" />
          </g>
        </g>
      </g>
    </g>
  </g>
</svg>
