<?xml version="1.0" encoding="UTF-8" standalone="no"?>
<!-- Created with Inkscape (http://www.inkscape.org/) -->

<svg
   xmlns:dc="http://purl.org/dc/elements/1.1/"
   xmlns:cc="http://creativecommons.org/ns#"
   xmlns:rdf="http://www.w3.org/1999/02/22-rdf-syntax-ns#"
   xmlns:svg="http://www.w3.org/2000/svg"
   xmlns="http://www.w3.org/2000/svg"
   xmlns:sodipodi="http://sodipodi.sourceforge.net/DTD/sodipodi-0.dtd"
   xmlns:inkscape="http://www.inkscape.org/namespaces/inkscape"
   width="201.08333mm"
   height="115.09375mm"
   viewBox="0 0 201.08333 115.09375"
   version="1.1"
   id="svg8"
   inkscape:version="0.92.1 r15371"
   sodipodi:docname="project_pnoolr.svg">
  <defs
     id="defs2">
    <inkscape:path-effect
       effect="spiro"
       id="path-effect961"
       is_visible="true" />
    <inkscape:path-effect
       effect="spiro"
       id="path-effect957"
       is_visible="true" />
    <inkscape:path-effect
       is_visible="true"
       id="path-effect961-2"
       effect="spiro" />
    <inkscape:path-effect
       is_visible="true"
       id="path-effect957-7"
       effect="spiro" />
  </defs>
  <sodipodi:namedview
     id="base"
     pagecolor="#ffffff"
     bordercolor="#666666"
     borderopacity="1.0"
     inkscape:pageopacity="0.0"
     inkscape:pageshadow="2"
     inkscape:zoom="1"
     inkscape:cx="375.00001"
     inkscape:cy="225.17691"
     inkscape:document-units="px"
     inkscape:current-layer="layer2"
     showgrid="false"
     showborder="false"
     inkscape:snap-global="false"
     inkscape:window-width="1366"
     inkscape:window-height="705"
     inkscape:window-x="-8"
     inkscape:window-y="-8"
     inkscape:window-maximized="1"
     inkscape:snap-bbox="true"
     inkscape:snap-midpoints="true"
     inkscape:snap-bbox-midpoints="true"
     inkscape:snap-bbox-edge-midpoints="true"
     inkscape:bbox-paths="true"
     inkscape:bbox-nodes="true"
     fit-margin-top="0"
     fit-margin-left="0"
     fit-margin-right="0"
     fit-margin-bottom="0" />
  <metadata
     id="metadata5">
    <rdf:RDF>
      <cc:Work
         rdf:about="">
        <dc:format>image/svg+xml</dc:format>
        <dc:type
           rdf:resource="http://purl.org/dc/dcmitype/StillImage" />
        <dc:title></dc:title>
      </cc:Work>
    </rdf:RDF>
  </metadata>
  <g
     inkscape:groupmode="layer"
     id="layer2"
     inkscape:label="Layer 2"
     transform="translate(405.0744,63.082672)">
    <text
       xml:space="preserve"
       style="font-style:normal;font-variant:normal;font-weight:normal;font-stretch:normal;font-size:2.90596962px;line-height:1.25;font-family:'Roboto Condensed';-inkscape-font-specification:'Roboto Condensed, ';letter-spacing:0px;word-spacing:0px;fill:#000000;fill-opacity:1;stroke:none;stroke-width:0.07264924"
       x="-301.86963"
       y="84.960716"
       id="text901"><tspan
         sodipodi:role="line"
         id="tspan899"
         x="-301.86963"
         y="87.611923"
         style="stroke-width:0.07264924" /></text>
    <rect
       style="opacity:1;fill:#ffc74d;fill-opacity:1;stroke:none;stroke-width:10.4707737;stroke-linecap:round;stroke-linejoin:round;stroke-miterlimit:4;stroke-dasharray:none;stroke-opacity:1"
       id="rect1190"
       width="201.08333"
       height="115.09375"
       x="-405.0744"
       y="-63.082672" />
    <path
       style="opacity:1;fill:#241c1c;fill-opacity:1;stroke:#241c1c;stroke-width:0.49177966;stroke-linecap:round;stroke-linejoin:round;stroke-miterlimit:4;stroke-dasharray:none;stroke-opacity:1"
       d="m -384.61583,-21.635943 0.73767,9.565693 h 0.0624 l 2.44321,37.079097 c 0.16348,2.481203 2.00186,4.48845 4.48844,4.48845 h 25.00681 c 2.48658,0 4.31539,-2.007898 4.48845,-4.48845 l 2.58696,-37.079097 h 0.0368 l 0.9016,-9.565693 z"
       id="rect4497"
       inkscape:connector-curvature="0" />
    <path
       inkscape:connector-curvature="0"
       id="rect4500"
       d="m -384.73457,-25.141902 h 41.45353 c 0.65286,0 1.17844,0.525584 1.17844,1.17844 0,0.652855 -0.52558,1.17844 -1.17844,1.17844 h -41.45353 c -0.65286,0 -1.17844,-0.525585 -1.17844,-1.17844 0,-0.652856 0.52558,-1.17844 1.17844,-1.17844 z"
       style="opacity:1;fill:#241c1c;fill-opacity:1;stroke:none;stroke-width:0.49177966;stroke-linecap:round;stroke-linejoin:round;stroke-miterlimit:4;stroke-dasharray:none;stroke-opacity:1" />
    <path
       style="opacity:1;fill:#241c1c;fill-opacity:1;stroke:#241c1c;stroke-width:0.49177966;stroke-linecap:round;stroke-linejoin:round;stroke-miterlimit:4;stroke-dasharray:none;stroke-opacity:1"
       d="m -378.33925,-42.685558 c -2.27022,0 -3.89872,1.836397 -4.09817,4.097846 l -0.73766,8.364098 c -0.0133,0.151117 -0.0122,0.299218 0,0.444072 l -0.32626,3.488566 h 38.52339 l -0.25582,-3.511298 c 0.0258,-0.190665 0.0315,-0.385915 0.0115,-0.585264 l -0.19948,-1.995619 -0.0198,-0.272462 h -0.008 l -0.59296,-5.932093 c -0.22578,-2.25897 -1.82792,-4.097846 -4.09816,-4.097846 z m 6.94222,2.517485 h 14.45084 c 2.57934,0 4.23533,2.111032 4.65558,4.655907 l 0.34803,2.105752 c 0.42023,2.544876 0.82128,4.597947 -1.75806,4.597947 h -20.59423 c -2.57935,0 -2.89978,-2.094273 -2.27961,-4.597947 l 0.52188,-2.105752 c 0.62017,-2.503674 2.07623,-4.655907 4.65557,-4.655907 z"
       id="rect4511"
       inkscape:connector-curvature="0" />
    <g
       style="fill:#f72929;fill-opacity:1"
       id="g4757"
       transform="matrix(0.08274132,0,0,0.08274132,-363.92423,2.4030656)">
      <path
         inkscape:connector-curvature="0"
         id="path4618"
         d="m 152.58927,38.193863 c 0.85787,-1.498568 1.71182,-2.999345 1.79496,-3.16271 0.16637,-0.326732 0.31627,-0.661591 0.44918,-1.003304 0.13272,-0.341697 0.24827,-0.689816 0.34622,-1.043053 0.0981,-0.353198 0.17844,-0.711078 0.24078,-1.072302 0.0623,-0.361335 0.1065,-0.72556 0.13241,-1.091309 0.0259,-0.365736 0.0336,-0.732541 0.0229,-1.09904 -0.0107,-0.36645 -0.0398,-0.732135 -0.087,-1.095684 -0.0473,-0.36358 -0.11268,-0.72457 -0.196,-1.081617 -0.0834,-0.356941 -0.18452,-0.70949 -0.30309,-1.056328 -0.1186,-0.346871 -0.25446,-0.687596 -0.40709,-1.020896 -0.14352,-0.313716 -0.30172,-0.620504 -0.47407,-0.919344 l -48.30665,-83.66595 -43.656006,25.205092 8.822581,15.281315 34.453715,59.673196 0.16345,8.6e-5 33.70437,0.174817 11.48069,0.126051 c 0.099,-0.154247 0.96083,-1.650445 1.81869,-3.149013 z"
         style="opacity:1;fill:#f72929;fill-opacity:1;stroke:none;stroke-width:0.52916664;stroke-linecap:round;stroke-linejoin:round;stroke-miterlimit:4;stroke-dasharray:none;stroke-opacity:1" />
      <path
         inkscape:connector-curvature="0"
         id="path4614"
         transform="scale(0.26458333)"
         d="m 168.91797,96.326172 -49.29688,76.999998 -49.294918,77 49.294918,77 49.29688,77 v -58.68555 l 267.54687,0.006 c 1.38558,-6.2e-4 2.76986,-0.07 4.14844,-0.20898 1.37855,-0.1386 2.74959,-0.3456 4.10742,-0.62109 1.35852,-0.27561 2.70315,-0.61941 4.02735,-1.0293 1.32347,-0.40992 2.62442,-0.88579 3.90039,-1.42578 1.2757,-0.54007 2.52481,-1.1439 3.74023,-1.8086 1.21554,-0.66424 2.39587,-1.38767 3.53906,-2.16992 1.14395,-0.78262 2.24852,-1.62267 3.3086,-2.51562 1.0594,-0.89309 2.07411,-1.8396 3.03906,-2.83399 0.96507,-0.99436 1.87926,-2.03534 2.74023,-3.12109 0.86109,-1.08557 1.6676,-2.21279 2.41602,-3.37891 v -0.002 c 0.70409,-1.09693 1.35716,-2.22654 1.95508,-3.38477 L 581.43164,136.00586 c -0.74842,1.16612 -1.55489,2.29529 -2.41602,3.38086 -0.86093,1.08575 -1.77516,2.12673 -2.74023,3.12109 -0.96495,0.9944 -1.97966,1.9409 -3.03906,2.83399 -1.05978,0.89234 -2.16307,1.72962 -3.30664,2.51172 -1.14289,0.78313 -2.32368,1.50869 -3.53907,2.17382 -1.21602,0.66442 -2.46591,1.2689 -3.74218,1.8086 -1.27597,0.53999 -2.57692,1.01586 -3.90039,1.42578 -1.32363,0.41016 -2.66745,0.75333 -4.02539,1.0293 -1.3584,0.27522 -2.7303,0.48289 -4.10938,0.62109 -1.37858,0.13893 -2.76286,0.20834 -4.14844,0.20898 l -147.40234,-0.002 h -0.61719 l -229.52734,-0.004 z"
         style="opacity:1;fill:#f72929;fill-opacity:1;stroke:none;stroke-width:1.99999988;stroke-linecap:round;stroke-linejoin:round;stroke-miterlimit:4;stroke-dasharray:none;stroke-opacity:1" />
    </g>
    <g
       style="fill:#f72929;fill-opacity:1"
       id="g4763"
       transform="matrix(-0.04137066,0.07165609,-0.07165609,-0.04137066,-365.51189,-0.05727481)">
      <path
         style="opacity:1;fill:#f72929;fill-opacity:1;stroke:none;stroke-width:0.52916664;stroke-linecap:round;stroke-linejoin:round;stroke-miterlimit:4;stroke-dasharray:none;stroke-opacity:1"
         d="m 152.58927,38.193863 c 0.85787,-1.498568 1.71182,-2.999345 1.79496,-3.16271 0.16637,-0.326732 0.31627,-0.661591 0.44918,-1.003304 0.13272,-0.341697 0.24827,-0.689816 0.34622,-1.043053 0.0981,-0.353198 0.17844,-0.711078 0.24078,-1.072302 0.0623,-0.361335 0.1065,-0.72556 0.13241,-1.091309 0.0259,-0.365736 0.0336,-0.732541 0.0229,-1.09904 -0.0107,-0.36645 -0.0398,-0.732135 -0.087,-1.095684 -0.0473,-0.36358 -0.11268,-0.72457 -0.196,-1.081617 -0.0834,-0.356941 -0.18452,-0.70949 -0.30309,-1.056328 -0.1186,-0.346871 -0.25446,-0.687596 -0.40709,-1.020896 -0.14352,-0.313716 -0.30172,-0.620504 -0.47407,-0.919344 l -48.30665,-83.66595 -43.656006,25.205092 8.822581,15.281315 34.453715,59.673196 0.16345,8.6e-5 33.70437,0.174817 11.48069,0.126051 c 0.099,-0.154247 0.96083,-1.650445 1.81869,-3.149013 z"
         id="path4759"
         inkscape:connector-curvature="0" />
      <path
         style="opacity:1;fill:#f72929;fill-opacity:1;stroke:none;stroke-width:1.99999988;stroke-linecap:round;stroke-linejoin:round;stroke-miterlimit:4;stroke-dasharray:none;stroke-opacity:1"
         d="m 168.91797,96.326172 -49.29688,76.999998 -49.294918,77 49.294918,77 49.29688,77 v -58.68555 l 267.54687,0.006 c 1.38558,-6.2e-4 2.76986,-0.07 4.14844,-0.20898 1.37855,-0.1386 2.74959,-0.3456 4.10742,-0.62109 1.35852,-0.27561 2.70315,-0.61941 4.02735,-1.0293 1.32347,-0.40992 2.62442,-0.88579 3.90039,-1.42578 1.2757,-0.54007 2.52481,-1.1439 3.74023,-1.8086 1.21554,-0.66424 2.39587,-1.38767 3.53906,-2.16992 1.14395,-0.78262 2.24852,-1.62267 3.3086,-2.51562 1.0594,-0.89309 2.07411,-1.8396 3.03906,-2.83399 0.96507,-0.99436 1.87926,-2.03534 2.74023,-3.12109 0.86109,-1.08557 1.6676,-2.21279 2.41602,-3.37891 v -0.002 c 0.70409,-1.09693 1.35716,-2.22654 1.95508,-3.38477 L 581.43164,136.00586 c -0.74842,1.16612 -1.55489,2.29529 -2.41602,3.38086 -0.86093,1.08575 -1.77516,2.12673 -2.74023,3.12109 -0.96495,0.9944 -1.97966,1.9409 -3.03906,2.83399 -1.05978,0.89234 -2.16307,1.72962 -3.30664,2.51172 -1.14289,0.78313 -2.32368,1.50869 -3.53907,2.17382 -1.21602,0.66442 -2.46591,1.2689 -3.74218,1.8086 -1.27597,0.53999 -2.57692,1.01586 -3.90039,1.42578 -1.32363,0.41016 -2.66745,0.75333 -4.02539,1.0293 -1.3584,0.27522 -2.7303,0.48289 -4.10938,0.62109 -1.37858,0.13893 -2.76286,0.20834 -4.14844,0.20898 l -147.40234,-0.002 h -0.61719 l -229.52734,-0.004 z"
         transform="scale(0.26458333)"
         id="path4761"
         inkscape:connector-curvature="0" />
    </g>
    <g
       style="fill:#f72929;fill-opacity:1"
       transform="matrix(-0.04137066,-0.07165609,0.07165609,-0.04137066,-362.67465,0.56173095)"
       id="g4769">
      <path
         inkscape:connector-curvature="0"
         id="path4765"
         d="m 152.58927,38.193863 c 0.85787,-1.498568 1.71182,-2.999345 1.79496,-3.16271 0.16637,-0.326732 0.31627,-0.661591 0.44918,-1.003304 0.13272,-0.341697 0.24827,-0.689816 0.34622,-1.043053 0.0981,-0.353198 0.17844,-0.711078 0.24078,-1.072302 0.0623,-0.361335 0.1065,-0.72556 0.13241,-1.091309 0.0259,-0.365736 0.0336,-0.732541 0.0229,-1.09904 -0.0107,-0.36645 -0.0398,-0.732135 -0.087,-1.095684 -0.0473,-0.36358 -0.11268,-0.72457 -0.196,-1.081617 -0.0834,-0.356941 -0.18452,-0.70949 -0.30309,-1.056328 -0.1186,-0.346871 -0.25446,-0.687596 -0.40709,-1.020896 -0.14352,-0.313716 -0.30172,-0.620504 -0.47407,-0.919344 l -48.30665,-83.66595 -43.656006,25.205092 8.822581,15.281315 34.453715,59.673196 0.16345,8.6e-5 33.70437,0.174817 11.48069,0.126051 c 0.099,-0.154247 0.96083,-1.650445 1.81869,-3.149013 z"
         style="opacity:1;fill:#f72929;fill-opacity:1;stroke:none;stroke-width:0.52916664;stroke-linecap:round;stroke-linejoin:round;stroke-miterlimit:4;stroke-dasharray:none;stroke-opacity:1" />
      <path
         inkscape:connector-curvature="0"
         id="path4767"
         transform="scale(0.26458333)"
         d="m 168.91797,96.326172 -49.29688,76.999998 -49.294918,77 49.294918,77 49.29688,77 v -58.68555 l 267.54687,0.006 c 1.38558,-6.2e-4 2.76986,-0.07 4.14844,-0.20898 1.37855,-0.1386 2.74959,-0.3456 4.10742,-0.62109 1.35852,-0.27561 2.70315,-0.61941 4.02735,-1.0293 1.32347,-0.40992 2.62442,-0.88579 3.90039,-1.42578 1.2757,-0.54007 2.52481,-1.1439 3.74023,-1.8086 1.21554,-0.66424 2.39587,-1.38767 3.53906,-2.16992 1.14395,-0.78262 2.24852,-1.62267 3.3086,-2.51562 1.0594,-0.89309 2.07411,-1.8396 3.03906,-2.83399 0.96507,-0.99436 1.87926,-2.03534 2.74023,-3.12109 0.86109,-1.08557 1.6676,-2.21279 2.41602,-3.37891 v -0.002 c 0.70409,-1.09693 1.35716,-2.22654 1.95508,-3.38477 L 581.43164,136.00586 c -0.74842,1.16612 -1.55489,2.29529 -2.41602,3.38086 -0.86093,1.08575 -1.77516,2.12673 -2.74023,3.12109 -0.96495,0.9944 -1.97966,1.9409 -3.03906,2.83399 -1.05978,0.89234 -2.16307,1.72962 -3.30664,2.51172 -1.14289,0.78313 -2.32368,1.50869 -3.53907,2.17382 -1.21602,0.66442 -2.46591,1.2689 -3.74218,1.8086 -1.27597,0.53999 -2.57692,1.01586 -3.90039,1.42578 -1.32363,0.41016 -2.66745,0.75333 -4.02539,1.0293 -1.3584,0.27522 -2.7303,0.48289 -4.10938,0.62109 -1.37858,0.13893 -2.76286,0.20834 -4.14844,0.20898 l -147.40234,-0.002 h -0.61719 l -229.52734,-0.004 z"
         style="opacity:1;fill:#f72929;fill-opacity:1;stroke:none;stroke-width:1.99999988;stroke-linecap:round;stroke-linejoin:round;stroke-miterlimit:4;stroke-dasharray:none;stroke-opacity:1" />
    </g>
    <g
       id="g4726"
       transform="matrix(1.1700364,0,0,1.1700364,49.45871,-5.717276)">
      <path
         d="m -317.03829,-6.7721306 v -1.2869551 h 0.92748 c 2.40854,0 2.40854,-3.7386393 0,-3.7458293 -0.74054,0 -1.48827,0 -2.21443,0 0,1.682388 0,3.3575863 0,5.0327844 0.42419,0 0.85557,0 1.28695,0 z m 0.92029,-2.4444951 h -0.92029 c 0,-0.409813 0,-1.0281263 0,-1.4379383 0.29478,0 0.61832,-0.0072 0.92029,0 0.74773,0.0072 0.70459,1.4379383 0,1.4379383 z"
         style="font-style:normal;font-variant:normal;font-weight:normal;font-stretch:normal;font-size:14.46096134px;line-height:1.25;font-family:Intro;-inkscape-font-specification:'Intro, Normal';font-variant-ligatures:normal;font-variant-caps:normal;font-variant-numeric:normal;font-feature-settings:normal;text-align:center;letter-spacing:0px;word-spacing:0px;writing-mode:lr-tb;text-anchor:middle;fill:#000000;fill-opacity:1;stroke:none;stroke-width:0.17974229"
         id="path4639"
         inkscape:connector-curvature="0" />
      <path
         d="m -310.44972,-6.7721306 h 1.2582 v -0.186932 l -2.27194,-4.9105594 h -0.55361 l -2.26475,4.9105594 v 0.186932 h 1.25819 l 0.29478,-0.6326931 h 1.98435 z m -0.71178,-1.7327161 h -1.15035 l 0.56799,-1.322903 z"
         style="font-style:normal;font-variant:normal;font-weight:normal;font-stretch:normal;font-size:14.46096134px;line-height:1.25;font-family:Intro;-inkscape-font-specification:'Intro, Normal';font-variant-ligatures:normal;font-variant-caps:normal;font-variant-numeric:normal;font-feature-settings:normal;text-align:center;letter-spacing:0px;word-spacing:0px;writing-mode:lr-tb;text-anchor:middle;fill:#000000;fill-opacity:1;stroke:none;stroke-width:0.17974229"
         id="path4641"
         inkscape:connector-curvature="0" />
      <path
         d="m -307.56744,-10.539529 c 0,-0.186932 0.16537,-0.294778 0.44576,-0.294778 0.60394,0 0.61832,0.8771433 -0.0144,0.8771433 h -0.33792 v 1.049694 h 0.3523 c 0.86276,0 0.86276,1.143161 0,1.143161 -0.37386,0 -0.6327,-0.251638 -0.6327,-0.647071 h -1.12878 c 0,1.1287811 0.66864,1.732715 1.76148,1.732715 1.29414,0 1.94121,-0.69021 1.94121,-1.581732 0,-0.567986 -0.21569,-0.970609 -0.72615,-1.243817 0.29477,-0.22288 0.43857,-0.6039343 0.43857,-0.9346593 0,-0.733349 -0.55361,-1.459508 -1.65363,-1.459508 -0.87714,0 -1.63206,0.431381 -1.58893,1.358852 z"
         style="font-style:normal;font-variant:normal;font-weight:normal;font-stretch:normal;font-size:14.46096134px;line-height:1.25;font-family:Intro;-inkscape-font-specification:'Intro, Normal';font-variant-ligatures:normal;font-variant-caps:normal;font-variant-numeric:normal;font-feature-settings:normal;text-align:center;letter-spacing:0px;word-spacing:0px;writing-mode:lr-tb;text-anchor:middle;fill:#000000;fill-opacity:1;stroke:none;stroke-width:0.17974229"
         id="path4643"
         inkscape:connector-curvature="0" />
      <path
         d="m -302.93975,-6.7721306 v -1.2869551 h 0.92747 c 2.40855,0 2.40855,-3.7386393 0,-3.7458293 -0.74054,0 -1.48826,0 -2.21442,0 0,1.682388 0,3.3575863 0,5.0327844 0.42419,0 0.85557,0 1.28695,0 z m 0.92028,-2.4444951 h -0.92028 c 0,-0.409813 0,-1.0281263 0,-1.4379383 0.29478,0 0.61832,-0.0072 0.92028,0 0.74773,0.0072 0.70459,1.4379383 0,1.4379383 z"
         style="font-style:normal;font-variant:normal;font-weight:normal;font-stretch:normal;font-size:14.46096134px;line-height:1.25;font-family:Intro;-inkscape-font-specification:'Intro, Normal';font-variant-ligatures:normal;font-variant-caps:normal;font-variant-numeric:normal;font-feature-settings:normal;text-align:center;letter-spacing:0px;word-spacing:0px;writing-mode:lr-tb;text-anchor:middle;fill:#000000;fill-opacity:1;stroke:none;stroke-width:0.17974229"
         id="path4645"
         inkscape:connector-curvature="0" />
      <path
         d="m -296.35118,-6.7721306 h 1.25819 v -0.186932 l -2.27194,-4.9105594 h -0.55361 l -2.26475,4.9105594 v 0.186932 h 1.2582 l 0.29478,-0.6326931 h 1.98435 z m -0.71178,-1.7327161 h -1.15036 l 0.56799,-1.322903 z"
         style="font-style:normal;font-variant:normal;font-weight:normal;font-stretch:normal;font-size:14.46096134px;line-height:1.25;font-family:Intro;-inkscape-font-specification:'Intro, Normal';font-variant-ligatures:normal;font-variant-caps:normal;font-variant-numeric:normal;font-feature-settings:normal;text-align:center;letter-spacing:0px;word-spacing:0px;writing-mode:lr-tb;text-anchor:middle;fill:#000000;fill-opacity:1;stroke:none;stroke-width:0.17974229"
         id="path4647"
         inkscape:connector-curvature="0" />
      <path
         d="m -292.21789,-8.9074697 c 0.70458,0 0.71177,0.984988 0,0.984988 -0.30198,0 -0.62551,0 -0.92029,0 v -0.984988 z m -0.92029,-1.1359713 v -0.611123 h 2.32946 v -1.150351 h -3.61641 v 5.0327844 h 2.21443 c 2.40854,-0.00719 2.40854,-3.2713104 0,-3.2713104 z"
         style="font-style:normal;font-variant:normal;font-weight:normal;font-stretch:normal;font-size:14.46096134px;line-height:1.25;font-family:Intro;-inkscape-font-specification:'Intro, Normal';font-variant-ligatures:normal;font-variant-caps:normal;font-variant-numeric:normal;font-feature-settings:normal;text-align:center;letter-spacing:0px;word-spacing:0px;writing-mode:lr-tb;text-anchor:middle;fill:#000000;fill-opacity:1;stroke:none;stroke-width:0.17974229"
         id="path4649"
         inkscape:connector-curvature="0" />
      <path
         d="m -284.58705,-9.2813337 c 0,-3.4798103 -5.1622,-3.4798103 -5.1622,0 0,3.4870011 5.1622,3.4870011 5.1622,0 z m -3.83929,0 c 0,-1.8118023 2.52357,-1.8118023 2.52357,0 0,1.826183 -2.52357,1.826183 -2.52357,0 z"
         style="font-style:normal;font-variant:normal;font-weight:normal;font-stretch:normal;font-size:14.46096134px;line-height:1.25;font-family:Intro;-inkscape-font-specification:'Intro, Normal';font-variant-ligatures:normal;font-variant-caps:normal;font-variant-numeric:normal;font-feature-settings:normal;text-align:center;letter-spacing:0px;word-spacing:0px;writing-mode:lr-tb;text-anchor:middle;fill:#000000;fill-opacity:1;stroke:none;stroke-width:0.17974229"
         id="path4651"
         inkscape:connector-curvature="0" />
      <path
         d="m -282.87197,-10.654564 v 3.8824334 c 0.42419,0 0.84838,0 1.27257,0 v -3.8824334 h 1.22944 c 0,-0.388244 0,-0.769297 0,-1.150351 h -3.73864 c 0,0.381054 0,0.762107 0,1.150351 z"
         style="font-style:normal;font-variant:normal;font-weight:normal;font-stretch:normal;font-size:14.46096134px;line-height:1.25;font-family:Intro;-inkscape-font-specification:'Intro, Normal';font-variant-ligatures:normal;font-variant-caps:normal;font-variant-numeric:normal;font-feature-settings:normal;text-align:center;letter-spacing:0px;word-spacing:0px;writing-mode:lr-tb;text-anchor:middle;fill:#000000;fill-opacity:1;stroke:none;stroke-width:0.17974229"
         id="path4653"
         inkscape:connector-curvature="0" />
      <path
         d="m -278.25259,-6.7721306 v -1.9196481 c 0.16536,0 0.32353,0 0.49608,-0.02876 l 1.10722,1.9484071 h 1.43074 v -0.2013115 l -1.36604,-2.2144246 c 0.99937,-0.639883 0.97061,-1.5889223 0.97061,-2.6170483 -0.44576,0 -0.88433,0 -1.3229,0 0,0.94185 0.0647,1.9052683 -1.22225,1.9052683 h -0.0935 v -1.9052683 c -0.44576,0 -0.87715,0 -1.30853,0 v 5.0327844 c 0.43138,0 0.86277,0 1.30853,0 z"
         style="font-style:normal;font-variant:normal;font-weight:normal;font-stretch:normal;font-size:14.46096134px;line-height:1.25;font-family:Intro;-inkscape-font-specification:'Intro, Normal';font-variant-ligatures:normal;font-variant-caps:normal;font-variant-numeric:normal;font-feature-settings:normal;text-align:center;letter-spacing:0px;word-spacing:0px;writing-mode:lr-tb;text-anchor:middle;fill:#000000;fill-opacity:1;stroke:none;stroke-width:0.17974229"
         id="path4655"
         inkscape:connector-curvature="0" />
      <path
         d="m -271.04684,-6.7721306 h 1.2582 v -0.186932 l -2.27195,-4.9105594 h -0.5536 l -2.26476,4.9105594 v 0.186932 h 1.2582 l 0.29478,-0.6326931 h 1.98435 z m -0.71178,-1.7327161 h -1.15035 l 0.56798,-1.322903 z"
         style="font-style:normal;font-variant:normal;font-weight:normal;font-stretch:normal;font-size:14.46096134px;line-height:1.25;font-family:Intro;-inkscape-font-specification:'Intro, Normal';font-variant-ligatures:normal;font-variant-caps:normal;font-variant-numeric:normal;font-feature-settings:normal;text-align:center;letter-spacing:0px;word-spacing:0px;writing-mode:lr-tb;text-anchor:middle;fill:#000000;fill-opacity:1;stroke:none;stroke-width:0.17974229"
         id="path4657"
         inkscape:connector-curvature="0" />
      <path
         d="m -262.94922,-11.804915 c -3.30726,0 -3.75303,0 -4.1844,0 v 5.0327844 c 0.43137,0 0.87714,0 1.31571,0 v -3.8464854 h 1.55297 v 3.8464854 c 0.43857,0 0.87715,0 1.31572,0 z"
         style="font-style:normal;font-variant:normal;font-weight:normal;font-stretch:normal;font-size:14.46096134px;line-height:1.25;font-family:Intro;-inkscape-font-specification:'Intro, Normal';font-variant-ligatures:normal;font-variant-caps:normal;font-variant-numeric:normal;font-feature-settings:normal;text-align:center;letter-spacing:0px;word-spacing:0px;writing-mode:lr-tb;text-anchor:middle;fill:#000000;fill-opacity:1;stroke:none;stroke-width:0.17974229"
         id="path4659"
         inkscape:connector-curvature="0" />
      <path
         d="m -260.37733,-6.7721306 v -1.2869551 h 0.92746 c 2.40855,0 2.40855,-3.7386393 0,-3.7458293 -0.74053,0 -1.48826,0 -2.21442,0 0,1.682388 0,3.3575863 0,5.0327844 0.42419,0 0.85557,0 1.28696,0 z m 0.92028,-2.4444951 h -0.92028 c 0,-0.409813 0,-1.0281263 0,-1.4379383 0.29477,0 0.61831,-0.0072 0.92028,0 0.74772,0.0072 0.70459,1.4379383 0,1.4379383 z"
         style="font-style:normal;font-variant:normal;font-weight:normal;font-stretch:normal;font-size:14.46096134px;line-height:1.25;font-family:Intro;-inkscape-font-specification:'Intro, Normal';font-variant-ligatures:normal;font-variant-caps:normal;font-variant-numeric:normal;font-feature-settings:normal;text-align:center;letter-spacing:0px;word-spacing:0px;writing-mode:lr-tb;text-anchor:middle;fill:#000000;fill-opacity:1;stroke:none;stroke-width:0.17974229"
         id="path4661"
         inkscape:connector-curvature="0" />
      <path
         d="m -251.82621,-9.2813337 c 0,-3.4798103 -5.1622,-3.4798103 -5.1622,0 0,3.4870011 5.1622,3.4870011 5.1622,0 z m -3.8393,0 c 0,-1.8118023 2.52359,-1.8118023 2.52359,0 0,1.826183 -2.52359,1.826183 -2.52359,0 z"
         style="font-style:normal;font-variant:normal;font-weight:normal;font-stretch:normal;font-size:14.46096134px;line-height:1.25;font-family:Intro;-inkscape-font-specification:'Intro, Normal';font-variant-ligatures:normal;font-variant-caps:normal;font-variant-numeric:normal;font-feature-settings:normal;text-align:center;letter-spacing:0px;word-spacing:0px;writing-mode:lr-tb;text-anchor:middle;fill:#000000;fill-opacity:1;stroke:none;stroke-width:0.17974229"
         id="path4663"
         inkscape:connector-curvature="0" />
      <path
         d="m -247.70977,-11.804915 c -1.17911,0 -1.97717,0 -3.1419,0 0,1.668008 0,3.3503963 0,5.0327844 1.16473,0 2.0275,0 3.20661,0 0,-0.3810537 0,-0.7692971 0,-1.1431611 -0.75492,0 -1.1863,0 -1.92684,0 0,-0.301967 0,-0.589555 0,-0.884332 h 1.71115 c 0,-0.381054 0,-0.762107 0,-1.143161 h -1.71115 v -0.7117793 c 0.74054,0 1.1144,0 1.86213,0 0,-0.388244 0,-0.776487 0,-1.150351 z"
         style="font-style:normal;font-variant:normal;font-weight:normal;font-stretch:normal;font-size:14.46096134px;line-height:1.25;font-family:Intro;-inkscape-font-specification:'Intro, Normal';font-variant-ligatures:normal;font-variant-caps:normal;font-variant-numeric:normal;font-feature-settings:normal;text-align:center;letter-spacing:0px;word-spacing:0px;writing-mode:lr-tb;text-anchor:middle;fill:#000000;fill-opacity:1;stroke:none;stroke-width:0.17974229"
         id="path4665"
         inkscape:connector-curvature="0" />
      <path
         d="m -245.22495,-6.7721306 v -1.9196481 c 0.16537,0 0.32354,0 0.49609,-0.02876 l 1.10722,1.9484071 h 1.43074 v -0.2013115 l -1.36604,-2.2144246 c 0.99937,-0.639883 0.97061,-1.5889223 0.97061,-2.6170483 -0.44576,0 -0.88433,0 -1.3229,0 0,0.94185 0.0647,1.9052683 -1.22225,1.9052683 h -0.0935 v -1.9052683 c -0.44576,0 -0.87714,0 -1.30852,0 v 5.0327844 c 0.43138,0 0.86276,0 1.30852,0 z"
         style="font-style:normal;font-variant:normal;font-weight:normal;font-stretch:normal;font-size:14.46096134px;line-height:1.25;font-family:Intro;-inkscape-font-specification:'Intro, Normal';font-variant-ligatures:normal;font-variant-caps:normal;font-variant-numeric:normal;font-feature-settings:normal;text-align:center;letter-spacing:0px;word-spacing:0px;writing-mode:lr-tb;text-anchor:middle;fill:#000000;fill-opacity:1;stroke:none;stroke-width:0.17974229"
         id="path4667"
         inkscape:connector-curvature="0" />
      <path
         d="m -240.70274,-10.654564 v 3.8824334 c 0.42419,0 0.84838,0 1.27257,0 v -3.8824334 h 1.22944 c 0,-0.388244 0,-0.769297 0,-1.150351 h -3.73864 c 0,0.381054 0,0.762107 0,1.150351 z"
         style="font-style:normal;font-variant:normal;font-weight:normal;font-stretch:normal;font-size:14.46096134px;line-height:1.25;font-family:Intro;-inkscape-font-specification:'Intro, Normal';font-variant-ligatures:normal;font-variant-caps:normal;font-variant-numeric:normal;font-feature-settings:normal;text-align:center;letter-spacing:0px;word-spacing:0px;writing-mode:lr-tb;text-anchor:middle;fill:#000000;fill-opacity:1;stroke:none;stroke-width:0.17974229"
         id="path4669"
         inkscape:connector-curvature="0" />
      <path
         d="m -234.49455,-6.7721306 h 1.25819 v -0.186932 l -2.27194,-4.9105594 h -0.55361 l -2.26475,4.9105594 v 0.186932 h 1.25819 l 0.29478,-0.6326931 h 1.98436 z m -0.71179,-1.7327161 h -1.15034 l 0.56798,-1.322903 z"
         style="font-style:normal;font-variant:normal;font-weight:normal;font-stretch:normal;font-size:14.46096134px;line-height:1.25;font-family:Intro;-inkscape-font-specification:'Intro, Normal';font-variant-ligatures:normal;font-variant-caps:normal;font-variant-numeric:normal;font-feature-settings:normal;text-align:center;letter-spacing:0px;word-spacing:0px;writing-mode:lr-tb;text-anchor:middle;fill:#000000;fill-opacity:1;stroke:none;stroke-width:0.17974229"
         id="path4671"
         inkscape:connector-curvature="0" />
    </g>
    <g
       id="g4734"
       transform="matrix(1.1700364,0,0,1.1700364,47.748859,-5.717276)">
      <path
         d="m -306.40343,-3.4244467 c -9.07756,0 -10.30106,0 -11.4851,0 V 10.389246 c 1.18404,0 2.40754,0 3.61129,0 V -0.16836191 h 4.26251 V 10.389246 c 1.20377,0 2.40754,0 3.6113,0 z"
         style="font-style:normal;font-variant:normal;font-weight:normal;font-stretch:normal;font-size:14.46096134px;line-height:1.25;font-family:Intro;-inkscape-font-specification:'Intro, Normal';font-variant-ligatures:normal;font-variant-caps:normal;font-variant-numeric:normal;font-feature-settings:normal;text-align:center;letter-spacing:0px;word-spacing:0px;writing-mode:lr-tb;text-anchor:middle;fill:#000000;fill-opacity:1;stroke:none;stroke-width:0.49334621"
         id="path4673"
         inkscape:connector-curvature="0" />
      <path
         d="m -291.37179,-3.4244467 c -1.20377,0 -2.40752,0 -3.61129,0 v 5.0123973 h -4.26251 v -5.0123973 c -1.20377,0 -2.42727,0 -3.6113,0 V 10.389246 c 1.18403,0 2.40753,0 3.6113,0 V 4.8440354 h 4.26251 v 5.5452106 c 1.20377,0 2.40752,0 3.61129,0 z"
         style="font-style:normal;font-variant:normal;font-weight:normal;font-stretch:normal;font-size:14.46096134px;line-height:1.25;font-family:Intro;-inkscape-font-specification:'Intro, Normal';font-variant-ligatures:normal;font-variant-caps:normal;font-variant-numeric:normal;font-feature-settings:normal;text-align:center;letter-spacing:0px;word-spacing:0px;writing-mode:lr-tb;text-anchor:middle;fill:#000000;fill-opacity:1;stroke:none;stroke-width:0.49334621"
         id="path4675"
         inkscape:connector-curvature="0" />
      <path
         d="m -274.52463,3.5021337 c 0,-9.5511822 -14.1689,-9.5511822 -14.1689,0 0,9.5709153 14.1689,9.5709153 14.1689,0 z m -10.53788,0 c 0,-4.9729296 6.92658,-4.9729296 6.92658,0 0,5.0123973 -6.92658,5.0123973 -6.92658,0 z"
         style="font-style:normal;font-variant:normal;font-weight:normal;font-stretch:normal;font-size:14.46096134px;line-height:1.25;font-family:Intro;-inkscape-font-specification:'Intro, Normal';font-variant-ligatures:normal;font-variant-caps:normal;font-variant-numeric:normal;font-feature-settings:normal;text-align:center;letter-spacing:0px;word-spacing:0px;writing-mode:lr-tb;text-anchor:middle;fill:#000000;fill-opacity:1;stroke:none;stroke-width:0.49334621"
         id="path4677"
         inkscape:connector-curvature="0" />
      <path
         d="m -258.52943,3.5021337 c 0,-9.5511822 -14.1689,-9.5511822 -14.1689,0 0,9.5709153 14.1689,9.5709153 14.1689,0 z m -10.53787,0 c 0,-4.9729296 6.92658,-4.9729296 6.92658,0 0,5.0123973 -6.92658,5.0123973 -6.92658,0 z"
         style="font-style:normal;font-variant:normal;font-weight:normal;font-stretch:normal;font-size:14.46096134px;line-height:1.25;font-family:Intro;-inkscape-font-specification:'Intro, Normal';font-variant-ligatures:normal;font-variant-caps:normal;font-variant-numeric:normal;font-feature-settings:normal;text-align:center;letter-spacing:0px;word-spacing:0px;writing-mode:lr-tb;text-anchor:middle;fill:#000000;fill-opacity:1;stroke:none;stroke-width:0.49334621"
         id="path4679"
         inkscape:connector-curvature="0" />
      <path
         d="m -250.62509,2.2983691 3.55209,8.0908769 h 3.45343 V 9.8761664 l -6.2359,-13.4782178 h -1.51951 l -6.21616,13.4782178 v 0.5130796 h 3.45343 z"
         style="font-style:normal;font-variant:normal;font-weight:normal;font-stretch:normal;font-size:14.46096134px;line-height:1.25;font-family:Intro;-inkscape-font-specification:'Intro, Normal';font-variant-ligatures:normal;font-variant-caps:normal;font-variant-numeric:normal;font-feature-settings:normal;text-align:center;letter-spacing:0px;word-spacing:0px;writing-mode:lr-tb;text-anchor:middle;fill:#000000;fill-opacity:1;stroke:none;stroke-width:0.49334621"
         id="path4681"
         inkscape:connector-curvature="0" />
      <path
         d="M -238.25413,10.389246 V 6.8568877 h 2.54566 c 6.61084,0 6.61084,-10.2616005 0,-10.2813344 -2.03258,0 -4.0849,0 -6.07801,0 0,4.6177202 0,9.2157067 0,13.8136927 1.16429,0 2.34832,0 3.53235,0 z m 2.52593,-6.7095076 h -2.52593 c 0,-1.1248293 0,-2.82194024 0,-3.94676956 0.80909,0 1.69711,-0.0197339 2.52593,0 2.05232,0.0197339 1.93391,3.94676956 0,3.94676956 z"
         style="font-style:normal;font-variant:normal;font-weight:normal;font-stretch:normal;font-size:14.46096134px;line-height:1.25;font-family:Intro;-inkscape-font-specification:'Intro, Normal';font-variant-ligatures:normal;font-variant-caps:normal;font-variant-numeric:normal;font-feature-settings:normal;text-align:center;letter-spacing:0px;word-spacing:0px;writing-mode:lr-tb;text-anchor:middle;fill:#000000;fill-opacity:1;stroke:none;stroke-width:0.49334621"
         id="path4683"
         inkscape:connector-curvature="0" />
    </g>
  </g>
</svg>
