<?xml version="1.0" encoding="UTF-8" standalone="no"?>
<!-- Created with Inkscape (http://www.inkscape.org/) -->

<svg
   xmlns:dc="http://purl.org/dc/elements/1.1/"
   xmlns:cc="http://creativecommons.org/ns#"
   xmlns:rdf="http://www.w3.org/1999/02/22-rdf-syntax-ns#"
   xmlns:svg="http://www.w3.org/2000/svg"
   xmlns="http://www.w3.org/2000/svg"
   xmlns:sodipodi="http://sodipodi.sourceforge.net/DTD/sodipodi-0.dtd"
   xmlns:inkscape="http://www.inkscape.org/namespaces/inkscape"
   width="201.08333mm"
   height="115.16926mm"
   viewBox="0 0 201.08333 115.16926"
   version="1.1"
   id="svg8"
   inkscape:version="0.92.2 (unknown)"
   sodipodi:docname="oot.svg">
  <defs
     id="defs2">
    <inkscape:path-effect
       is_visible="true"
       id="path-effect961"
       effect="spiro" />
    <inkscape:path-effect
       is_visible="true"
       id="path-effect957"
       effect="spiro" />
    <inkscape:path-effect
       effect="spiro"
       id="path-effect961-2"
       is_visible="true" />
    <inkscape:path-effect
       effect="spiro"
       id="path-effect957-7"
       is_visible="true" />
  </defs>
  <sodipodi:namedview
     id="base"
     pagecolor="#ffffff"
     bordercolor="#666666"
     borderopacity="1.0"
     inkscape:pageopacity="0.0"
     inkscape:pageshadow="2"
     inkscape:zoom="0.70710678"
     inkscape:cx="616.88994"
     inkscape:cy="265.72594"
     inkscape:document-units="px"
     inkscape:current-layer="layer2"
     showgrid="false"
     showborder="false"
     fit-margin-top="0"
     fit-margin-left="0"
     fit-margin-right="0"
     fit-margin-bottom="0"
     inkscape:window-width="1366"
     inkscape:window-height="705"
     inkscape:window-x="0"
     inkscape:window-y="30"
     inkscape:window-maximized="1" />
  <metadata
     id="metadata5">
    <rdf:RDF>
      <cc:Work
         rdf:about="">
        <dc:format>image/svg+xml</dc:format>
        <dc:type
           rdf:resource="http://purl.org/dc/dcmitype/StillImage" />
        <dc:title></dc:title>
      </cc:Work>
    </rdf:RDF>
  </metadata>
  <g
     inkscape:groupmode="layer"
     id="layer2"
     inkscape:label="Layer 2"
     transform="translate(374.79193,-212.96814)">
    <text
       xml:space="preserve"
       style="font-style:normal;font-variant:normal;font-weight:normal;font-stretch:normal;font-size:10.58333302px;line-height:1.25;font-family:'Roboto Condensed';-inkscape-font-specification:'Roboto Condensed, ';letter-spacing:0px;word-spacing:0px;fill:#000000;fill-opacity:1;stroke:none;stroke-width:0.26458332"
       x="-182.30124"
       y="315.16882"
       id="text901"><tspan
         sodipodi:role="line"
         id="tspan899"
         x="-182.30124"
         y="324.42923"
         style="stroke-width:0.26458332" /></text>
    <g
       id="g1683">
      <rect
         y="212.96814"
         x="-374.79193"
         height="115.16926"
         width="201.08333"
         id="rect1190"
         style="opacity:1;fill:#ffc74d;fill-opacity:1;stroke:none;stroke-width:10.47420788;stroke-linecap:round;stroke-linejoin:round;stroke-miterlimit:4;stroke-dasharray:none;stroke-opacity:1" />
      <g
         id="g1654">
        <path
           style="opacity:1;fill:#241c1c;fill-opacity:1;stroke:none;stroke-width:0.25206113;stroke-linecap:round;stroke-linejoin:round;stroke-miterlimit:4;stroke-dasharray:none;stroke-opacity:1"
           d="m -348.06667,267.21235 h -6.97322 c -4.44736,0 -8.02793,3.58058 -8.02793,8.02794 V 307.074 c 0,4.44738 3.58057,8.02794 8.02793,8.02794 h 41.09413 c 4.44737,0 8.02794,-3.58056 8.02794,-8.02794 v -31.83371 c 0,-4.44736 -3.58057,-8.02794 -8.02794,-8.02794 h -7.47034 l -4.87464,8.46667 -8.20208,-6.87917 -7.67292,6.87917 z"
           id="path943"
           inkscape:connector-curvature="0" />
        <path
           style="opacity:1;fill:#241c1c;fill-opacity:1;stroke:none;stroke-width:0.22486918;stroke-linecap:round;stroke-linejoin:round;stroke-miterlimit:4;stroke-dasharray:none;stroke-opacity:1"
           d="m -350.55011,249.56233 a 16.072867,17.109828 0 0 0 16.05515,16.58779 16.072867,17.109828 0 0 0 16.0354,-16.31893 30.979158,17.239447 0 0 1 -15.64654,2.3848 30.979158,17.239447 0 0 1 -16.44401,-2.65366 z"
           id="path945"
           inkscape:connector-curvature="0" />
        <path
           style="opacity:1;fill:#f72929;fill-opacity:1;stroke:none;stroke-width:0.26458332;stroke-linecap:round;stroke-linejoin:round;stroke-miterlimit:4;stroke-dasharray:none;stroke-opacity:1"
           d="m -328.64096,227.1921 c -1.37454,-0.59482 -2.85442,-1.01539 -4.4266,-1.17357 l -10e-4,0.0233 -0.0331,0.62838 -0.13229,2.77813 -0.16537,3.20807 -0.13229,2.61276 -0.0496,2.71198 c -7.9e-4,10e-4 -0.0618,1.41725 -0.14883,1.5875 -0.0703,0.13751 -0.18371,0.27542 -0.31781,0.3762 -0.13409,0.10079 -0.28885,0.16447 -0.44286,0.15297 -0.1361,-0.0102 -0.25969,-0.0874 -0.36174,-0.19379 -0.10204,-0.10638 -0.18255,-0.24188 -0.23358,-0.36845 -0.0857,-0.21215 -0.12688,-0.64583 -0.14676,-1.02681 -0.0199,-0.38099 -0.0184,-0.70929 -0.0186,-0.70952 l -0.0661,-3.05925 -0.16537,-3.20807 -0.16536,-2.67891 -0.12971,-2.84943 c -1.56653,0.12309 -3.05452,0.49168 -4.43436,1.04748 l 0.10749,0.70435 0.41548,2.78897 0.34055,2.27118 0.42116,2.34198 c -5.3e-4,0.001 0.1923,1.22997 0.154,1.39164 -0.0309,0.1306 -0.0945,0.26918 -0.18087,0.37931 -0.0863,0.11013 -0.19557,0.19172 -0.31626,0.20877 -0.10665,0.015 -0.2144,-0.0297 -0.31109,-0.10335 -0.0967,-0.0737 -0.1821,-0.17648 -0.24288,-0.27647 -0.10198,-0.16756 -0.20748,-0.53351 -0.28732,-0.85783 -0.0798,-0.32431 -0.13422,-0.60702 -0.13436,-0.6072 l -0.56896,-2.62051 -0.67076,-2.7311 -0.51832,-2.0314 c -3.02943,1.73421 -5.29759,4.4975 -6.21925,7.78402 -0.32249,0.73857 -0.65488,1.52909 -0.786,1.95699 -0.23745,0.7749 -0.26414,0.99498 -0.52917,2.71198 -0.0731,0.47375 0.0234,1.09676 0,1.52135 -0.0133,0.24116 -1.5797,1.02956 -1.91823,1.38907 -0.33853,0.35951 -0.38514,0.18012 -0.46302,0.39687 -0.0779,0.21675 -0.0296,0.40452 0.13229,0.76068 0.16193,0.35616 0.4847,0.75979 0.99219,1.2237 0.5075,0.4639 1.39564,1.07202 2.11667,1.42213 0.72102,0.35012 1.17024,0.41538 2.14974,0.69453 0.97949,0.27915 2.73718,0.53319 3.80338,0.76068 1.06621,0.22749 0.7702,0.22675 1.55443,0.33073 0.78423,0.10398 2.5115,0.1491 3.175,0.19844 0.6635,0.0493 0.14164,-0.0189 0.74259,0.0382 0.60095,0.0571 1.93992,0.16019 2.99465,0.16019 1.05473,0 2.58606,-0.11878 3.14244,-0.18241 0.55638,-0.0636 -0.27071,0.0275 0.31523,-0.016 0.58594,-0.0436 2.38727,-0.0906 3.175,-0.19844 0.78772,-0.10782 0.66191,-0.14653 1.55443,-0.33073 0.89251,-0.18419 2.81347,-0.50269 3.80338,-0.76067 0.98991,-0.25799 1.42871,-0.34442 2.14974,-0.69454 0.72103,-0.35011 1.60917,-0.95823 2.11667,-1.42213 0.50749,-0.4639 0.83026,-0.86754 0.99219,-1.2237 0.16192,-0.35616 0.21016,-0.54393 0.13229,-0.76068 -0.0779,-0.21675 -0.12449,-0.0374 -0.46302,-0.39687 -0.33853,-0.35951 -1.90493,-1.1479 -1.91823,-1.38906 -0.0234,-0.42459 0.0731,-1.04761 0,-1.52136 -0.26503,-1.717 -0.29172,-1.93708 -0.52917,-2.71198 -0.29008,-0.94666 -1.55443,-3.67109 -1.55443,-3.67109 l -0.1757,0.14159 c -1.07796,-2.48976 -2.97561,-4.56705 -5.35833,-6.01617 l -0.46922,1.83607 -0.67076,2.73109 -0.56896,2.62052 c -1.4e-4,1.7e-4 -0.0545,0.28288 -0.13435,0.60719 -0.0798,0.32432 -0.18534,0.69027 -0.28732,0.85783 -0.0608,0.1 -0.14567,0.20278 -0.24237,0.27647 -0.0967,0.0737 -0.20496,0.11839 -0.31161,0.10336 -0.12069,-0.017 -0.22941,-0.0986 -0.31574,-0.20878 -0.0863,-0.11013 -0.15047,-0.24871 -0.18138,-0.3793 -0.0383,-0.16168 0.15492,-1.39046 0.15451,-1.39165 l 0.42064,-2.34197 0.34055,-2.27118 0.416,-2.78898 z"
           id="path997"
           inkscape:connector-curvature="0"
           sodipodi:nodetypes="cccccccccccccccccccccccccccccccccccccczzzzzzzzzzzzzzzzzzzzzccsccccccccccccccccc" />
      </g>
      <g
         id="g1649">
        <path
           inkscape:connector-curvature="0"
           id="path1564"
           style="font-style:normal;font-variant:normal;font-weight:normal;font-stretch:normal;font-size:14.61308002px;line-height:1.25;font-family:Intro;-inkscape-font-specification:'Intro , Normal';font-variant-ligatures:normal;font-variant-caps:normal;font-variant-numeric:normal;font-feature-settings:normal;text-align:start;letter-spacing:0px;word-spacing:0px;writing-mode:lr-tb;text-anchor:start;fill:#000000;fill-opacity:1;stroke:none;stroke-width:0.365327"
           d="m -285.36939,260.94468 c 0,-7.07273 -10.49219,-7.07273 -10.49219,0 0,7.08735 10.49219,7.08735 10.49219,0 z m -7.80338,0 c 0,-3.68249 5.12919,-3.68249 5.12919,0 0,3.71172 -5.12919,3.71172 -5.12919,0 z" />
        <path
           inkscape:connector-curvature="0"
           id="path1566"
           style="font-style:normal;font-variant:normal;font-weight:normal;font-stretch:normal;font-size:14.61308002px;line-height:1.25;font-family:Intro;-inkscape-font-specification:'Intro , Normal';font-variant-ligatures:normal;font-variant-caps:normal;font-variant-numeric:normal;font-feature-settings:normal;text-align:start;letter-spacing:0px;word-spacing:0px;writing-mode:lr-tb;text-anchor:start;fill:#000000;fill-opacity:1;stroke:none;stroke-width:0.365327"
           d="m -278.90242,261.70456 c 1.43208,0 1.4467,2.00199 0,2.00199 -0.61375,0 -1.27133,0 -1.87047,0 v -2.00199 z m -1.87047,-2.30886 v -1.24212 h 4.73464 v -2.33809 h -7.35038 v 10.22916 h 4.50083 c 4.89538,-0.0146 4.89538,-6.64895 0,-6.64895 z" />
        <path
           inkscape:connector-curvature="0"
           id="path1568"
           style="font-style:normal;font-variant:normal;font-weight:normal;font-stretch:normal;font-size:14.61308002px;line-height:1.25;font-family:Intro;-inkscape-font-specification:'Intro , Normal';font-variant-ligatures:normal;font-variant-caps:normal;font-variant-numeric:normal;font-feature-settings:normal;text-align:start;letter-spacing:0px;word-spacing:0px;writing-mode:lr-tb;text-anchor:start;fill:#000000;fill-opacity:1;stroke:none;stroke-width:0.365327"
           d="m -272.62815,266.04465 h 2.82032 l 4.85154,-9.83461 v -0.39455 h -2.83493 l -1.75357,3.77018 h -0.0731 l -1.92892,-3.77018 h -2.92262 v 0.39455 l 3.44869,6.2544 -1.60744,3.30256 z" />
        <path
           inkscape:connector-curvature="0"
           id="path1570"
           style="font-style:normal;font-variant:normal;font-weight:normal;font-stretch:normal;font-size:14.61308002px;line-height:1.25;font-family:Intro;-inkscape-font-specification:'Intro , Normal';font-variant-ligatures:normal;font-variant-caps:normal;font-variant-numeric:normal;font-feature-settings:normal;text-align:start;letter-spacing:0px;word-spacing:0px;writing-mode:lr-tb;text-anchor:start;fill:#000000;fill-opacity:1;stroke:none;stroke-width:0.365327"
           d="m -255.96833,266.04465 v -10.22916 h -2.65958 v 4.17934 h -0.51146 c -2.03121,0 -2.16273,-1.18366 -2.16273,-2.92261 v -1.25673 h -2.68881 v 1.25673 c 0,3.59481 1.28595,5.40684 4.83693,5.40684 h 0.52607 v 3.56559 z" />
        <path
           inkscape:connector-curvature="0"
           id="path1572"
           style="font-style:normal;font-variant:normal;font-weight:normal;font-stretch:normal;font-size:14.61308002px;line-height:1.25;font-family:Intro;-inkscape-font-specification:'Intro , Normal';font-variant-ligatures:normal;font-variant-caps:normal;font-variant-numeric:normal;font-feature-settings:normal;text-align:start;letter-spacing:0px;word-spacing:0px;writing-mode:lr-tb;text-anchor:start;fill:#000000;fill-opacity:1;stroke:none;stroke-width:0.365327"
           d="m -246.9774,255.81549 c -2.39655,0 -4.0186,0 -6.38592,0 0,3.39024 0,6.8097 0,10.22916 2.36732,0 4.12089,0 6.51743,0 0,-0.7745 0,-1.5636 0,-2.32348 -1.53437,0 -2.41115,0 -3.9163,0 0,-0.61375 0,-1.19828 0,-1.79741 h 3.47791 c 0,-0.77449 0,-1.54899 0,-2.32348 h -3.47791 v -1.4467 c 1.50515,0 2.26503,0 3.78479,0 0,-0.7891 0,-1.57821 0,-2.33809 z" />
        <path
           inkscape:connector-curvature="0"
           id="path1574"
           style="font-style:normal;font-variant:normal;font-weight:normal;font-stretch:normal;font-size:14.61308002px;line-height:1.25;font-family:Intro;-inkscape-font-specification:'Intro , Normal';font-variant-ligatures:normal;font-variant-caps:normal;font-variant-numeric:normal;font-feature-settings:normal;text-align:start;letter-spacing:0px;word-spacing:0px;writing-mode:lr-tb;text-anchor:start;fill:#000000;fill-opacity:1;stroke:none;stroke-width:0.365327"
           d="m -236.08176,255.81549 c -0.89139,0 -1.78279,0 -2.67419,0 v 3.71172 h -3.15642 v -3.71172 c -0.8914,0 -1.79741,0 -2.6742,0 v 10.22916 c 0.87679,0 1.7828,0 2.6742,0 v -4.10628 h 3.15642 v 4.10628 c 0.8914,0 1.7828,0 2.67419,0 z" />
        <path
           inkscape:connector-curvature="0"
           id="path1576"
           style="font-style:normal;font-variant:normal;font-weight:normal;font-stretch:normal;font-size:14.61308002px;line-height:1.25;font-family:Intro;-inkscape-font-specification:'Intro , Normal';font-variant-ligatures:normal;font-variant-caps:normal;font-variant-numeric:normal;font-feature-settings:normal;text-align:start;letter-spacing:0px;word-spacing:0px;writing-mode:lr-tb;text-anchor:start;fill:#000000;fill-opacity:1;stroke:none;stroke-width:0.365327"
           d="m -227.36186,261.01775 v 5.0269 c 0.90602,0 1.81203,0 2.70342,0 v -10.273 h -0.94985 l -5.17303,5.05613 v -5.01229 c -0.89139,0 -1.78279,0 -2.67419,0 v 10.24377 h 0.93524 z" />
        <path
           inkscape:connector-curvature="0"
           id="path1578"
           style="font-style:normal;font-variant:normal;font-weight:normal;font-stretch:normal;font-size:14.61308002px;line-height:1.25;font-family:Intro;-inkscape-font-specification:'Intro , Normal';font-variant-ligatures:normal;font-variant-caps:normal;font-variant-numeric:normal;font-feature-settings:normal;text-align:start;letter-spacing:0px;word-spacing:0px;writing-mode:lr-tb;text-anchor:start;fill:#000000;fill-opacity:1;stroke:none;stroke-width:0.365327"
           d="m -215.66774,255.81549 c -2.39654,0 -4.01859,0 -6.38591,0 0,3.39024 0,6.8097 0,10.22916 2.36732,0 4.12089,0 6.51743,0 0,-0.7745 0,-1.5636 0,-2.32348 -1.53437,0 -2.41116,0 -3.91631,0 0,-0.61375 0,-1.19828 0,-1.79741 h 3.47792 c 0,-0.77449 0,-1.54899 0,-2.32348 h -3.47792 v -1.4467 c 1.50515,0 2.26503,0 3.78479,0 0,-0.7891 0,-1.57821 0,-2.33809 z" />
        <path
           inkscape:connector-curvature="0"
           id="path1580"
           style="font-style:normal;font-variant:normal;font-weight:normal;font-stretch:normal;font-size:14.61308002px;line-height:1.25;font-family:Intro;-inkscape-font-specification:'Intro , Normal';font-variant-ligatures:normal;font-variant-caps:normal;font-variant-numeric:normal;font-feature-settings:normal;text-align:start;letter-spacing:0px;word-spacing:0px;writing-mode:lr-tb;text-anchor:start;fill:#000000;fill-opacity:1;stroke:none;stroke-width:0.365327"
           d="m -200.74778,255.81549 c -6.72202,0 -7.62803,0 -8.50481,0 v 10.22916 c 0.87678,0 1.78279,0 2.67419,0 v -7.818 h 3.15642 v 7.818 c 0.8914,0 1.7828,0 2.6742,0 z" />
        <path
           inkscape:connector-curvature="0"
           id="path1582"
           style="font-style:normal;font-variant:normal;font-weight:normal;font-stretch:normal;font-size:14.61308002px;line-height:1.25;font-family:Intro;-inkscape-font-specification:'Intro , Normal';font-variant-ligatures:normal;font-variant-caps:normal;font-variant-numeric:normal;font-feature-settings:normal;text-align:start;letter-spacing:0px;word-spacing:0px;writing-mode:lr-tb;text-anchor:start;fill:#000000;fill-opacity:1;stroke:none;stroke-width:0.365327"
           d="m -188.27232,260.94468 c 0,-7.07273 -10.49219,-7.07273 -10.49219,0 0,7.08735 10.49219,7.08735 10.49219,0 z m -7.80339,0 c 0,-3.68249 5.1292,-3.68249 5.1292,0 0,3.71172 -5.1292,3.71172 -5.1292,0 z" />
        <path
           inkscape:connector-curvature="0"
           id="path1584"
           style="font-style:normal;font-variant:normal;font-weight:normal;font-stretch:normal;font-size:14.61308002px;line-height:1.25;font-family:Intro;-inkscape-font-specification:'Intro , Normal';font-variant-ligatures:normal;font-variant-caps:normal;font-variant-numeric:normal;font-feature-settings:normal;text-align:start;letter-spacing:0px;word-spacing:0px;writing-mode:lr-tb;text-anchor:start;fill:#000000;fill-opacity:1;stroke:none;stroke-width:0.365327"
           d="m -285.36939,279.21103 c 0,-7.07273 -10.49219,-7.07273 -10.49219,0 0,7.08735 10.49219,7.08735 10.49219,0 z m -7.80338,0 c 0,-3.68249 5.12919,-3.68249 5.12919,0 0,3.71172 -5.12919,3.71172 -5.12919,0 z" />
        <path
           inkscape:connector-curvature="0"
           id="path1586"
           style="font-style:normal;font-variant:normal;font-weight:normal;font-stretch:normal;font-size:14.61308002px;line-height:1.25;font-family:Intro;-inkscape-font-specification:'Intro , Normal';font-variant-ligatures:normal;font-variant-caps:normal;font-variant-numeric:normal;font-feature-settings:normal;text-align:start;letter-spacing:0px;word-spacing:0px;writing-mode:lr-tb;text-anchor:start;fill:#000000;fill-opacity:1;stroke:none;stroke-width:0.365327"
           d="m -279.73536,281.09612 1.87047,3.21488 h 2.82033 v -0.39456 l -3.31717,-5.0269 2.95184,-4.41315 v -0.39455 h -2.70342 l -1.63667,2.65958 h -0.0731 l -1.62205,-2.65958 h -2.71804 v 0.39455 l 2.95185,4.41315 -3.30256,5.0269 v 0.39456 h 2.82032 l 1.87048,-3.21488 z" />
        <path
           inkscape:connector-curvature="0"
           id="path1588"
           style="font-style:normal;font-variant:normal;font-weight:normal;font-stretch:normal;font-size:14.61308002px;line-height:1.25;font-family:Intro;-inkscape-font-specification:'Intro , Normal';font-variant-ligatures:normal;font-variant-caps:normal;font-variant-numeric:normal;font-feature-settings:normal;text-align:start;letter-spacing:0px;word-spacing:0px;writing-mode:lr-tb;text-anchor:start;fill:#000000;fill-opacity:1;stroke:none;stroke-width:0.365327"
           d="m -270.92619,284.311 v -2.61574 h 1.88509 c 4.89538,0 4.89538,-7.59881 0,-7.61342 -1.50515,0 -3.02491,0 -4.50083,0 0,3.41946 0,6.82431 0,10.22916 0.86217,0 1.73896,0 2.61574,0 z m 1.87048,-4.96845 h -1.87048 c 0,-0.83295 0,-2.08967 0,-2.92262 0.59914,0 1.25673,-0.0146 1.87048,0 1.51976,0.0146 1.43208,2.92262 0,2.92262 z" />
        <path
           inkscape:connector-curvature="0"
           id="path1590"
           style="font-style:normal;font-variant:normal;font-weight:normal;font-stretch:normal;font-size:14.61308002px;line-height:1.25;font-family:Intro;-inkscape-font-specification:'Intro , Normal';font-variant-ligatures:normal;font-variant-caps:normal;font-variant-numeric:normal;font-feature-settings:normal;text-align:start;letter-spacing:0px;word-spacing:0px;writing-mode:lr-tb;text-anchor:start;fill:#000000;fill-opacity:1;stroke:none;stroke-width:0.365327"
           d="m -257.5349,284.311 h 2.55729 v -0.37994 l -4.61773,-9.98074 h -1.12521 l -4.60312,9.98074 v 0.37994 h 2.55729 l 0.59914,-1.28595 h 4.03321 z m -1.44669,-3.52176 h -2.33809 l 1.15443,-2.6888 z" />
        <path
           inkscape:connector-curvature="0"
           id="path1592"
           style="font-style:normal;font-variant:normal;font-weight:normal;font-stretch:normal;font-size:14.61308002px;line-height:1.25;font-family:Intro;-inkscape-font-specification:'Intro , Normal';font-variant-ligatures:normal;font-variant-caps:normal;font-variant-numeric:normal;font-feature-settings:normal;text-align:start;letter-spacing:0px;word-spacing:0px;writing-mode:lr-tb;text-anchor:start;fill:#000000;fill-opacity:1;stroke:none;stroke-width:0.365327"
           d="m -245.10076,274.08184 c -0.8914,0 -1.7828,0 -2.6742,0 v 3.71172 h -3.15642 v -3.71172 c -0.8914,0 -1.79741,0 -2.6742,0 V 284.311 c 0.87679,0 1.7828,0 2.6742,0 v -4.10628 h 3.15642 v 4.10628 c 0.8914,0 1.7828,0 2.6742,0 z" />
        <path
           inkscape:connector-curvature="0"
           id="path1594"
           style="font-style:normal;font-variant:normal;font-weight:normal;font-stretch:normal;font-size:14.61308002px;line-height:1.25;font-family:Intro;-inkscape-font-specification:'Intro , Normal';font-variant-ligatures:normal;font-variant-caps:normal;font-variant-numeric:normal;font-feature-settings:normal;text-align:start;letter-spacing:0px;word-spacing:0px;writing-mode:lr-tb;text-anchor:start;fill:#000000;fill-opacity:1;stroke:none;stroke-width:0.365327"
           d="m -236.10322,274.08184 c -2.39654,0 -4.01859,0 -6.38591,0 0,3.39024 0,6.8097 0,10.22916 2.36732,0 4.12089,0 6.51743,0 0,-0.7745 0,-1.5636 0,-2.32348 -1.53437,0 -2.41116,0 -3.9163,0 0,-0.61375 0,-1.19828 0,-1.79741 h 3.47791 c 0,-0.77449 0,-1.54899 0,-2.32348 h -3.47791 v -1.4467 c 1.50514,0 2.26502,0 3.78478,0 0,-0.7891 0,-1.57821 0,-2.33809 z" />
        <path
           inkscape:connector-curvature="0"
           id="path1596"
           style="font-style:normal;font-variant:normal;font-weight:normal;font-stretch:normal;font-size:14.61308002px;line-height:1.25;font-family:Intro;-inkscape-font-specification:'Intro , Normal';font-variant-ligatures:normal;font-variant-caps:normal;font-variant-numeric:normal;font-feature-settings:normal;text-align:start;letter-spacing:0px;word-spacing:0px;writing-mode:lr-tb;text-anchor:start;fill:#000000;fill-opacity:1;stroke:none;stroke-width:0.365327"
           d="m -228.19754,276.41993 v 7.89107 c 0.86217,0 1.72434,0 2.58652,0 v -7.89107 h 2.49883 c 0,-0.7891 0,-1.5636 0,-2.33809 h -7.5988 c 0,0.77449 0,1.54899 0,2.33809 z" />
        <path
           inkscape:connector-curvature="0"
           id="path1598"
           style="font-style:normal;font-variant:normal;font-weight:normal;font-stretch:normal;font-size:14.61308002px;line-height:1.25;font-family:Intro;-inkscape-font-specification:'Intro , Normal';font-variant-ligatures:normal;font-variant-caps:normal;font-variant-numeric:normal;font-feature-settings:normal;text-align:start;letter-spacing:0px;word-spacing:0px;writing-mode:lr-tb;text-anchor:start;fill:#000000;fill-opacity:1;stroke:none;stroke-width:0.365327"
           d="m -218.86709,284.311 v -2.61574 h 1.88509 c 4.89538,0 4.89538,-7.59881 0,-7.61342 -1.50515,0 -3.02491,0 -4.50083,0 0,3.41946 0,6.82431 0,10.22916 0.86217,0 1.73896,0 2.61574,0 z m 1.87048,-4.96845 h -1.87048 c 0,-0.83295 0,-2.08967 0,-2.92262 0.59914,0 1.25673,-0.0146 1.87048,0 1.51976,0.0146 1.43208,2.92262 0,2.92262 z" />
        <path
           inkscape:connector-curvature="0"
           id="path1600"
           style="font-style:normal;font-variant:normal;font-weight:normal;font-stretch:normal;font-size:14.61308002px;line-height:1.25;font-family:Intro;-inkscape-font-specification:'Intro , Normal';font-variant-ligatures:normal;font-variant-caps:normal;font-variant-numeric:normal;font-feature-settings:normal;text-align:start;letter-spacing:0px;word-spacing:0px;writing-mode:lr-tb;text-anchor:start;fill:#000000;fill-opacity:1;stroke:none;stroke-width:0.365327"
           d="m -210.72235,284.311 h 2.82033 l 4.85154,-9.83461 v -0.39455 h -2.83494 l -1.75357,3.77018 h -0.0731 l -1.92893,-3.77018 h -2.92262 v 0.39455 l 3.44869,6.2544 -1.60744,3.30256 z" />
        <path
           inkscape:connector-curvature="0"
           id="path1602"
           style="font-style:normal;font-variant:normal;font-weight:normal;font-stretch:normal;font-size:14.61308002px;line-height:1.25;font-family:Intro;-inkscape-font-specification:'Intro , Normal';font-variant-ligatures:normal;font-variant-caps:normal;font-variant-numeric:normal;font-feature-settings:normal;text-align:start;letter-spacing:0px;word-spacing:0px;writing-mode:lr-tb;text-anchor:start;fill:#000000;fill-opacity:1;stroke:none;stroke-width:0.365327"
           d="m -201.38323,284.34022 h 6.04982 v 1.12521 h 2.14812 v -3.41946 h -1.06675 l -3.62405,-8.09565 h -1.1252 l -3.50714,8.09565 h -1.03753 v 3.41946 h 2.16273 z m 2.93723,-6.02059 1.47592,3.69711 h -2.89339 z" />
        <path
           inkscape:connector-curvature="0"
           id="path1604"
           style="font-style:normal;font-variant:normal;font-weight:normal;font-stretch:normal;font-size:14.61308002px;line-height:1.25;font-family:Intro;-inkscape-font-specification:'Intro , Normal';font-variant-ligatures:normal;font-variant-caps:normal;font-variant-numeric:normal;font-feature-settings:normal;text-align:start;letter-spacing:0px;word-spacing:0px;writing-mode:lr-tb;text-anchor:start;fill:#000000;fill-opacity:1;stroke:none;stroke-width:0.365327"
           d="m -184.44095,284.311 h 2.55728 v -0.37994 l -4.61773,-9.98074 h -1.12521 l -4.60312,9.98074 v 0.37994 h 2.55729 l 0.59914,-1.28595 h 4.03321 z m -1.4467,-3.52176 h -2.33809 l 1.15443,-2.6888 z" />
      </g>
    </g>
  </g>
</svg>
