<?xml version="1.0" encoding="UTF-8" standalone="no"?>
<!-- Created with Inkscape (http://www.inkscape.org/) -->

<svg
   xmlns:dc="http://purl.org/dc/elements/1.1/"
   xmlns:cc="http://creativecommons.org/ns#"
   xmlns:rdf="http://www.w3.org/1999/02/22-rdf-syntax-ns#"
   xmlns:svg="http://www.w3.org/2000/svg"
   xmlns="http://www.w3.org/2000/svg"
   xmlns:sodipodi="http://sodipodi.sourceforge.net/DTD/sodipodi-0.dtd"
   xmlns:inkscape="http://www.inkscape.org/namespaces/inkscape"
   width="201.08333mm"
   height="115.16926mm"
   viewBox="0 0 201.08333 115.16926"
   version="1.1"
   id="svg8"
   inkscape:version="0.92.2 (unknown)"
   sodipodi:docname="firepenis.svg">
  <defs
     id="defs2">
    <inkscape:path-effect
       effect="spiro"
       id="path-effect961"
       is_visible="true" />
    <inkscape:path-effect
       effect="spiro"
       id="path-effect957"
       is_visible="true" />
  </defs>
  <sodipodi:namedview
     id="base"
     pagecolor="#ffffff"
     bordercolor="#666666"
     borderopacity="1.0"
     inkscape:pageopacity="0.0"
     inkscape:pageshadow="2"
     inkscape:zoom="1"
     inkscape:cx="273.32887"
     inkscape:cy="165.06231"
     inkscape:document-units="px"
     inkscape:current-layer="layer1"
     showgrid="false"
     showborder="false"
     inkscape:snap-global="false"
     inkscape:window-width="1366"
     inkscape:window-height="705"
     inkscape:window-x="0"
     inkscape:window-y="30"
     inkscape:window-maximized="1"
     fit-margin-top="0"
     fit-margin-left="0"
     fit-margin-right="0"
     fit-margin-bottom="0" />
  <metadata
     id="metadata5">
    <rdf:RDF>
      <cc:Work
         rdf:about="">
        <dc:format>image/svg+xml</dc:format>
        <dc:type
           rdf:resource="http://purl.org/dc/dcmitype/StillImage" />
        <dc:title></dc:title>
      </cc:Work>
    </rdf:RDF>
  </metadata>
  <g
     inkscape:label="Layer 1"
     inkscape:groupmode="layer"
     id="layer1"
     transform="translate(-40.411148,-84.544624)">
    <text
       xml:space="preserve"
       style="font-style:normal;font-variant:normal;font-weight:normal;font-stretch:normal;font-size:10.58333302px;line-height:1.25;font-family:'Roboto Condensed';-inkscape-font-specification:'Roboto Condensed, ';letter-spacing:0px;word-spacing:0px;fill:#000000;fill-opacity:1;stroke:none;stroke-width:0.26458332"
       x="94.456245"
       y="205.45418"
       id="text901"><tspan
         sodipodi:role="line"
         id="tspan899"
         x="94.456245"
         y="214.7146"
         style="stroke-width:0.26458332" /></text>
    <g
       id="g1060">
      <rect
         y="84.544624"
         x="40.411148"
         height="115.16926"
         width="201.08333"
         id="rect1190"
         style="opacity:1;fill:#ffc74d;fill-opacity:1;stroke:none;stroke-width:10.47420788;stroke-linecap:round;stroke-linejoin:round;stroke-miterlimit:4;stroke-dasharray:none;stroke-opacity:1" />
      <path
         id="path1037"
         d="m 108.58191,104.34325 c -0.62716,0.002 -1.37059,0.0471 -1.83544,0.22149 -4.73452,1.77652 -11.759087,4.74395 -15.887911,7.29309 l -0.01098,0.002 c -0.08388,0.01 -0.156176,0.0611 -0.217198,0.13796 -0.01072,0.006 -0.0227,0.0138 -0.03341,0.0205 l 0.01766,9.3e-4 c -0.1381,0.19298 -0.204213,0.53846 -0.153232,0.92665 l 0.157051,1.19769 c 0.07455,0.56776 0.367285,0.99718 0.655891,0.96331 l 5.671492,-0.66544 c 0.288606,-0.0339 0.461225,-0.51824 0.386661,-1.08599 l -0.157529,-1.19769 c -0.0046,-0.0327 -0.01145,-0.0632 -0.01718,-0.095 0.05737,-0.20258 0.146124,-0.42779 0.274959,-0.52652 3.505106,-2.68619 8.370666,-4.42383 12.731136,-6.06771 0.31119,-0.30943 0.30567,-0.65467 -0.44394,-1.08408 0,-1e-5 -0.51086,-0.0421 -1.13802,-0.0405 z"
         style="opacity:1;fill:#483737;fill-opacity:1;stroke:none;stroke-width:0.73322219;stroke-linecap:round;stroke-linejoin:round;stroke-miterlimit:4;stroke-dasharray:none;stroke-opacity:1"
         inkscape:connector-curvature="0" />
      <path
         id="path1035"
         d="m 95.725226,112.80108 a 0.56167194,0.56167194 0 0 1 0.561373,0.56185 0.56167194,0.56167194 0 0 1 -0.561373,0.56185 0.56167194,0.56167194 0 0 1 -0.561851,-0.56185 0.56167194,0.56167194 0 0 1 0.561851,-0.56185 z"
         style="opacity:1;fill:#ffffff;fill-opacity:1;stroke:none;stroke-width:0.73322219;stroke-linecap:round;stroke-linejoin:round;stroke-miterlimit:4;stroke-dasharray:none;stroke-opacity:1"
         inkscape:connector-curvature="0" />
      <path
         id="path1033"
         d="m 92.052432,113.31949 a 0.56167194,0.56167194 0 0 1 0.561851,0.56185 0.56167194,0.56167194 0 0 1 -0.561851,0.56185 0.56167194,0.56167194 0 0 1 -0.561373,-0.56185 0.56167194,0.56167194 0 0 1 0.561373,-0.56185 z"
         style="opacity:1;fill:#ffffff;fill-opacity:1;stroke:none;stroke-width:0.73322219;stroke-linecap:round;stroke-linejoin:round;stroke-miterlimit:4;stroke-dasharray:none;stroke-opacity:1"
         inkscape:connector-curvature="0" />
      <path
         id="path1031"
         d="m 97.606018,113.85795 c -0.08803,0.38772 0.02974,0.66381 -0.427713,0.97763 -0.367022,0.2518 -3.095832,0.40735 -4.643742,0.61102 8.130407,1.03262 14.014937,0.47574 19.735897,3.54391 0.0929,-0.35424 0.24363,-0.67547 -0.21385,-1.34424 -3.22821,-2.78013 -9.63373,-2.47463 -14.450592,-3.78832 z"
         style="opacity:1;fill:#483737;fill-opacity:1;stroke:none;stroke-width:0.73322219;stroke-linecap:round;stroke-linejoin:round;stroke-miterlimit:4;stroke-dasharray:none;stroke-opacity:1"
         inkscape:connector-curvature="0" />
      <path
         id="path1029"
         d="m 87.707518,115.3855 v 0.61102 h -1.833056 v -0.30551 h -1.283139 v 0.85542 h -3.10617 l -0.09069,-0.11743 -2.259337,1.74379 -0.392865,-0.43773 -0.987654,0.88549 -0.994815,-1.27979 -22.413878,14.40046 7.471134,9.06265 18.802662,-18.49715 -1.060689,-1.36477 1.141364,-1.02346 -0.379023,-0.42246 1.525636,-1.17765 h 2.744333 v 0.79433 H 85.87447 V 118.685 h 1.833055 v 0.85542 h 2.444074 V 118.685 h 1.099834 v 2.32187 h 4.154926 v -0.48882 h 1.955258 v -2.68847 h -1.955258 v -1.58866 h -4.1091 -1.14566 v -0.85542 z"
         style="opacity:1;fill:#483737;fill-opacity:1;stroke:none;stroke-width:0.73322219;stroke-linecap:round;stroke-linejoin:round;stroke-miterlimit:4;stroke-dasharray:none;stroke-opacity:1"
         inkscape:connector-curvature="0" />
      <path
         id="rect898"
         d="m 91.373629,121.80119 v 1.87984 a 11.24274,11.24274 0 0 0 -9.021593,9.74479 h -0.08067 v 1.28696 45.20248 h 22.485484 v -45.20248 -1.28696 h -0.0878 a 11.24274,11.24274 0 0 0 -9.07935,-9.74766 v -1.87697 z"
         style="opacity:1;fill:#ff0000;fill-opacity:1;stroke:none;stroke-width:0.73322219;stroke-linecap:round;stroke-linejoin:round;stroke-miterlimit:4;stroke-dasharray:none;stroke-opacity:1"
         inkscape:connector-curvature="0" />
      <g
         id="text909"
         style="font-style:normal;font-variant:normal;font-weight:normal;font-stretch:normal;font-size:13.02449417px;line-height:1.25;font-family:Intro;-inkscape-font-specification:'Intro, Normal';font-variant-ligatures:normal;font-variant-caps:normal;font-variant-numeric:normal;font-feature-settings:normal;text-align:end;letter-spacing:0px;word-spacing:0px;writing-mode:lr-tb;text-anchor:end;fill:#000000;fill-opacity:1;stroke:none;stroke-width:0.32561234"
         aria-label="ПОЖАРНО
ТЕХНИЧЕСКИЙ
МИНИМУМ">
        <path
           id="path972"
           style="font-style:normal;font-variant:normal;font-weight:normal;font-stretch:normal;font-size:13.02449417px;font-family:Intro;-inkscape-font-specification:'Intro, Normal';font-variant-ligatures:normal;font-variant-caps:normal;font-variant-numeric:normal;font-feature-settings:normal;text-align:end;writing-mode:lr-tb;text-anchor:end;stroke-width:0.32561234"
           d="m 164.44423,121.36169 c -5.99127,0 -6.79879,0 -7.58026,0 v 9.11715 c 0.78147,0 1.58899,0 2.38348,0 v -6.96811 h 2.81329 v 6.96811 c 0.7945,0 1.58899,0 2.38349,0 z"
           inkscape:connector-curvature="0" />
        <path
           id="path974"
           style="font-style:normal;font-variant:normal;font-weight:normal;font-stretch:normal;font-size:13.02449417px;font-family:Intro;-inkscape-font-specification:'Intro, Normal';font-variant-ligatures:normal;font-variant-caps:normal;font-variant-numeric:normal;font-feature-settings:normal;text-align:end;writing-mode:lr-tb;text-anchor:end;stroke-width:0.32561234"
           d="m 175.56348,125.93329 c 0,-6.30386 -9.35158,-6.30386 -9.35158,0 0,6.31688 9.35158,6.31688 9.35158,0 z m -6.95508,0 c 0,-3.28217 4.5716,-3.28217 4.5716,0 0,3.30822 -4.5716,3.30822 -4.5716,0 z"
           inkscape:connector-curvature="0" />
        <path
           id="path976"
           style="font-style:normal;font-variant:normal;font-weight:normal;font-stretch:normal;font-size:13.02449417px;font-family:Intro;-inkscape-font-specification:'Intro, Normal';font-variant-ligatures:normal;font-variant-caps:normal;font-variant-numeric:normal;font-feature-settings:normal;text-align:end;writing-mode:lr-tb;text-anchor:end;stroke-width:0.32561234"
           d="m 181.35348,130.47884 h 2.37046 v -3.47754 c 0.14327,0 0.31259,-0.026 0.4819,-0.0521 l 1.99275,3.52964 h 2.57885 v -0.36469 l -2.4486,-4.01154 c 1.8104,-1.15918 1.74528,-2.87842 1.74528,-4.74092 h -2.38348 c 0,1.64109 0.11722,3.32125 -1.9667,3.43847 v -3.43847 h -2.37046 v 3.43847 c -2.08392,-0.11722 -1.9667,-1.79738 -1.9667,-3.43847 h -2.38348 c 0,1.8625 -0.0651,3.58174 1.74528,4.74092 l -2.4486,4.01154 v 0.36469 h 2.57885 l 1.99274,-3.52964 c 0.16932,0.026 0.33864,0.0521 0.48191,0.0521 z"
           inkscape:connector-curvature="0" />
        <path
           id="path978"
           style="font-style:normal;font-variant:normal;font-weight:normal;font-stretch:normal;font-size:13.02449417px;font-family:Intro;-inkscape-font-specification:'Intro, Normal';font-variant-ligatures:normal;font-variant-caps:normal;font-variant-numeric:normal;font-feature-settings:normal;text-align:end;writing-mode:lr-tb;text-anchor:end;stroke-width:0.32561234"
           d="m 196.32737,130.47884 h 2.27929 v -0.33864 l -4.11574,-8.89573 h -1.00289 l -4.10271,8.89573 v 0.33864 h 2.27929 l 0.534,-1.14616 h 3.59476 z m -1.28942,-3.13891 h -2.08392 l 1.02893,-2.3965 z"
           inkscape:connector-curvature="0" />
        <path
           id="path980"
           style="font-style:normal;font-variant:normal;font-weight:normal;font-stretch:normal;font-size:13.02449417px;font-family:Intro;-inkscape-font-specification:'Intro, Normal';font-variant-ligatures:normal;font-variant-caps:normal;font-variant-numeric:normal;font-feature-settings:normal;text-align:end;writing-mode:lr-tb;text-anchor:end;stroke-width:0.32561234"
           d="m 202.1479,130.47884 v -2.33139 h 1.68016 c 4.36321,0 4.36321,-6.77274 0,-6.78576 -1.34152,0 -2.69607,0 -4.01154,0 0,3.04773 0,6.08244 0,9.11715 0.76844,0 1.54991,0 2.33138,0 z m 1.66714,-4.42833 h -1.66714 c 0,-0.7424 0,-1.8625 0,-2.6049 0.534,0 1.12011,-0.013 1.66714,0 1.35454,0.013 1.2764,2.6049 0,2.6049 z"
           inkscape:connector-curvature="0" />
        <path
           id="path982"
           style="font-style:normal;font-variant:normal;font-weight:normal;font-stretch:normal;font-size:13.02449417px;font-family:Intro;-inkscape-font-specification:'Intro, Normal';font-variant-ligatures:normal;font-variant-caps:normal;font-variant-numeric:normal;font-feature-settings:normal;text-align:end;writing-mode:lr-tb;text-anchor:end;stroke-width:0.32561234"
           d="m 216.44045,121.36169 c -0.79449,0 -1.58899,0 -2.38348,0 v 3.30822 h -2.81329 v -3.30822 c -0.7945,0 -1.60202,0 -2.38348,0 v 9.11715 c 0.78146,0 1.58898,0 2.38348,0 v -3.65989 h 2.81329 v 3.65989 c 0.79449,0 1.58899,0 2.38348,0 z"
           inkscape:connector-curvature="0" />
        <path
           id="path984"
           style="font-style:normal;font-variant:normal;font-weight:normal;font-stretch:normal;font-size:13.02449417px;font-family:Intro;-inkscape-font-specification:'Intro, Normal';font-variant-ligatures:normal;font-variant-caps:normal;font-variant-numeric:normal;font-feature-settings:normal;text-align:end;writing-mode:lr-tb;text-anchor:end;stroke-width:0.32561234"
           d="m 227.55971,125.93329 c 0,-6.30386 -9.35159,-6.30386 -9.35159,0 0,6.31688 9.35159,6.31688 9.35159,0 z m -6.95508,0 c 0,-3.28217 4.57159,-3.28217 4.57159,0 0,3.30822 -4.57159,3.30822 -4.57159,0 z"
           inkscape:connector-curvature="0" />
        <path
           id="path986"
           style="font-style:normal;font-variant:normal;font-weight:normal;font-stretch:normal;font-size:13.02449417px;font-family:Intro;-inkscape-font-specification:'Intro, Normal';font-variant-ligatures:normal;font-variant-caps:normal;font-variant-numeric:normal;font-feature-settings:normal;text-align:end;writing-mode:lr-tb;text-anchor:end;stroke-width:0.32561234"
           d="m 129.98121,139.72623 v 7.03322 c 0.76845,0 1.53689,0 2.30534,0 v -7.03322 h 2.22719 c 0,-0.70333 0,-1.39362 0,-2.08392 H 127.741 c 0,0.6903 0,1.38059 0,2.08392 z"
           inkscape:connector-curvature="0" />
        <path
           id="path988"
           style="font-style:normal;font-variant:normal;font-weight:normal;font-stretch:normal;font-size:13.02449417px;font-family:Intro;-inkscape-font-specification:'Intro, Normal';font-variant-ligatures:normal;font-variant-caps:normal;font-variant-numeric:normal;font-feature-settings:normal;text-align:end;writing-mode:lr-tb;text-anchor:end;stroke-width:0.32561234"
           d="m 141.65767,137.64231 c -2.13602,0 -3.58173,0 -5.6917,0 0,3.02168 0,6.06941 0,9.11714 2.10997,0 3.6729,0 5.80892,0 0,-0.69029 0,-1.39362 0,-2.07089 -1.36757,0 -2.14904,0 -3.49056,0 0,-0.54703 0,-1.06801 0,-1.60201 h 3.09983 c 0,-0.6903 0,-1.3806 0,-2.0709 h -3.09983 v -1.28942 c 1.34152,0 2.01879,0 3.37334,0 0,-0.70333 0,-1.40665 0,-2.08392 z"
           inkscape:connector-curvature="0" />
        <path
           id="path990"
           style="font-style:normal;font-variant:normal;font-weight:normal;font-stretch:normal;font-size:13.02449417px;font-family:Intro;-inkscape-font-specification:'Intro, Normal';font-variant-ligatures:normal;font-variant-caps:normal;font-variant-numeric:normal;font-feature-settings:normal;text-align:end;writing-mode:lr-tb;text-anchor:end;stroke-width:0.32561234"
           d="m 147.0317,143.89407 1.66714,2.86538 h 2.51372 v -0.35166 l -2.95656,-4.48042 2.63095,-3.9334 v -0.35166 h -2.40953 l -1.45874,2.37046 h -0.0651 l -1.44572,-2.37046 h -2.42255 v 0.35166 l 2.63095,3.9334 -2.94354,4.48042 v 0.35166 h 2.51373 l 1.66713,-2.86538 z"
           inkscape:connector-curvature="0" />
        <path
           id="path992"
           style="font-style:normal;font-variant:normal;font-weight:normal;font-stretch:normal;font-size:13.02449417px;font-family:Intro;-inkscape-font-specification:'Intro, Normal';font-variant-ligatures:normal;font-variant-caps:normal;font-variant-numeric:normal;font-feature-settings:normal;text-align:end;writing-mode:lr-tb;text-anchor:end;stroke-width:0.32561234"
           d="m 160.14513,137.64231 c -0.7945,0 -1.58899,0 -2.38349,0 v 3.30822 h -2.81329 v -3.30822 c -0.79449,0 -1.60201,0 -2.38348,0 v 9.11714 c 0.78147,0 1.58899,0 2.38348,0 v -3.65988 h 2.81329 v 3.65988 c 0.7945,0 1.58899,0 2.38349,0 z"
           inkscape:connector-curvature="0" />
        <path
           id="path994"
           style="font-style:normal;font-variant:normal;font-weight:normal;font-stretch:normal;font-size:13.02449417px;font-family:Intro;-inkscape-font-specification:'Intro, Normal';font-variant-ligatures:normal;font-variant-caps:normal;font-variant-numeric:normal;font-feature-settings:normal;text-align:end;writing-mode:lr-tb;text-anchor:end;stroke-width:0.32561234"
           d="m 167.91709,142.27903 v 4.48042 c 0.80752,0 1.61504,0 2.40953,0 v -9.15622 h -0.84659 l -4.61067,4.50648 v -4.4674 c -0.7945,0 -1.58899,0 -2.38349,0 v 9.13017 h 0.83357 z"
           inkscape:connector-curvature="0" />
        <path
           id="path996"
           style="font-style:normal;font-variant:normal;font-weight:normal;font-stretch:normal;font-size:13.02449417px;font-family:Intro;-inkscape-font-specification:'Intro, Normal';font-variant-ligatures:normal;font-variant-caps:normal;font-variant-numeric:normal;font-feature-settings:normal;text-align:end;writing-mode:lr-tb;text-anchor:end;stroke-width:0.32561234"
           d="m 179.40795,146.75945 v -9.11714 h -2.37046 v 3.725 h -0.45586 c -1.8104,0 -1.92762,-1.05498 -1.92762,-2.6049 v -1.1201 h -2.39651 v 1.1201 c 0,3.20403 1.14615,4.81907 4.31111,4.81907 h 0.46888 v 3.17797 z"
           inkscape:connector-curvature="0" />
        <path
           id="path998"
           style="font-style:normal;font-variant:normal;font-weight:normal;font-stretch:normal;font-size:13.02449417px;font-family:Intro;-inkscape-font-specification:'Intro, Normal';font-variant-ligatures:normal;font-variant-caps:normal;font-variant-numeric:normal;font-feature-settings:normal;text-align:end;writing-mode:lr-tb;text-anchor:end;stroke-width:0.32561234"
           d="m 187.42147,137.64231 c -2.13602,0 -3.58174,0 -5.6917,0 0,3.02168 0,6.06941 0,9.11714 2.10996,0 3.6729,0 5.80892,0 0,-0.69029 0,-1.39362 0,-2.07089 -1.36757,0 -2.14904,0 -3.49056,0 0,-0.54703 0,-1.06801 0,-1.60201 h 3.09983 c 0,-0.6903 0,-1.3806 0,-2.0709 h -3.09983 v -1.28942 c 1.34152,0 2.01879,0 3.37334,0 0,-0.70333 0,-1.40665 0,-2.08392 z"
           inkscape:connector-curvature="0" />
        <path
           id="path1000"
           style="font-style:normal;font-variant:normal;font-weight:normal;font-stretch:normal;font-size:13.02449417px;font-family:Intro;-inkscape-font-specification:'Intro, Normal';font-variant-ligatures:normal;font-variant-caps:normal;font-variant-numeric:normal;font-feature-settings:normal;text-align:end;writing-mode:lr-tb;text-anchor:end;stroke-width:0.32561234"
           d="m 188.99235,142.20088 c 0.013,3.09983 2.35743,4.66277 4.67579,4.64975 1.94065,0 3.9855,-1.01592 4.32413,-3.59477 -0.79449,0 -1.51084,0 -2.29231,0 -0.24746,0.97684 -1.04196,1.47177 -2.03182,1.47177 -1.38059,-0.013 -2.26626,-1.18523 -2.26626,-2.52675 0,-1.51084 0.89869,-2.53978 2.26626,-2.53978 0.97684,0 1.66714,0.41679 1.99275,1.34153 0.79449,0 1.49782,0 2.29231,0 -0.35166,-2.43558 -2.39651,-3.46452 -4.28506,-3.46452 -2.31836,0 -4.66277,1.56294 -4.67579,4.66277 z"
           inkscape:connector-curvature="0" />
        <path
           id="path1002"
           style="font-style:normal;font-variant:normal;font-weight:normal;font-stretch:normal;font-size:13.02449417px;font-family:Intro;-inkscape-font-specification:'Intro, Normal';font-variant-ligatures:normal;font-variant-caps:normal;font-variant-numeric:normal;font-feature-settings:normal;text-align:end;writing-mode:lr-tb;text-anchor:end;stroke-width:0.32561234"
           d="m 202.14912,146.75945 v -3.47754 c 0.29956,0 0.5861,0 0.89869,-0.0521 l 2.00577,3.52963 h 2.59187 v -0.36468 l -2.47465,-4.01155 c 1.81041,-1.15918 1.75831,-2.87841 1.75831,-4.74091 -0.80752,0 -1.60202,0 -2.39651,0 0,1.70621 0.11722,3.45149 -2.21416,3.45149 h -0.16932 v -3.45149 c -0.80752,0 -1.58899,0 -2.37046,0 v 9.11714 c 0.78147,0 1.56294,0 2.37046,0 z"
           inkscape:connector-curvature="0" />
        <path
           id="path1004"
           style="font-style:normal;font-variant:normal;font-weight:normal;font-stretch:normal;font-size:13.02449417px;font-family:Intro;-inkscape-font-specification:'Intro, Normal';font-variant-ligatures:normal;font-variant-caps:normal;font-variant-numeric:normal;font-feature-settings:normal;text-align:end;writing-mode:lr-tb;text-anchor:end;stroke-width:0.32561234"
           d="m 214.44404,142.27903 v 4.48042 c 0.80752,0 1.61504,0 2.40953,0 v -9.15622 h -0.84659 l -4.61067,4.50648 v -4.4674 c -0.79449,0 -1.58899,0 -2.38348,0 v 9.13017 h 0.83357 z"
           inkscape:connector-curvature="0" />
        <path
           id="path1006"
           style="font-style:normal;font-variant:normal;font-weight:normal;font-stretch:normal;font-size:13.02449417px;font-family:Intro;-inkscape-font-specification:'Intro, Normal';font-variant-ligatures:normal;font-variant-caps:normal;font-variant-numeric:normal;font-feature-settings:normal;text-align:end;writing-mode:lr-tb;text-anchor:end;stroke-width:0.32561234"
           d="m 220.0869,146.77248 h -0.83356 v -9.13017 c 0.79449,0 1.58898,0 2.38348,0 v 4.4674 l 4.61067,-4.50648 h 0.84659 v 9.15622 c -0.79449,0 -1.60201,0 -2.40953,0 v -4.48042 z m 2.50071,-11.98254 c -0.45586,0.026 -0.89869,0.0781 -1.34153,0.13025 0.0391,1.45874 0.85962,2.22719 2.26627,2.22719 1.44571,0 2.22718,-0.76845 2.27928,-2.22719 -0.44283,-0.0521 -0.88566,-0.1042 -1.34152,-0.13025 -0.0781,0.54703 -0.42981,0.71635 -0.96381,0.71635 -0.54703,0 -0.85962,-0.23444 -0.89869,-0.71635 z"
           inkscape:connector-curvature="0" />
        <path
           id="path1008"
           style="font-style:normal;font-variant:normal;font-weight:normal;font-stretch:normal;font-size:13.02449417px;font-family:Intro;-inkscape-font-specification:'Intro, Normal';font-variant-ligatures:normal;font-variant-caps:normal;font-variant-numeric:normal;font-feature-settings:normal;text-align:end;writing-mode:lr-tb;text-anchor:end;stroke-width:0.32561234"
           d="m 161.24081,157.85632 -3.56871,-3.95944 h -0.85962 v 9.14319 c 0.7945,0 1.58899,0 2.38349,0 v -4.06364 l 1.92762,2.03182 h 0.26049 l 1.94065,-2.03182 v 4.06364 c 0.7945,0 1.58899,0 2.38348,0 v -9.14319 h -0.83356 z"
           inkscape:connector-curvature="0" />
        <path
           id="path1010"
           style="font-style:normal;font-variant:normal;font-weight:normal;font-stretch:normal;font-size:13.02449417px;font-family:Intro;-inkscape-font-specification:'Intro, Normal';font-variant-ligatures:normal;font-variant-caps:normal;font-variant-numeric:normal;font-feature-settings:normal;text-align:end;writing-mode:lr-tb;text-anchor:end;stroke-width:0.32561234"
           d="m 173.46267,158.55965 v 4.48042 c 0.80752,0 1.61504,0 2.40953,0 v -9.15622 h -0.84659 l -4.61067,4.50648 v -4.4674 c -0.79449,0 -1.58899,0 -2.38348,0 v 9.13017 h 0.83357 z"
           inkscape:connector-curvature="0" />
        <path
           id="path1012"
           style="font-style:normal;font-variant:normal;font-weight:normal;font-stretch:normal;font-size:13.02449417px;font-family:Intro;-inkscape-font-specification:'Intro, Normal';font-variant-ligatures:normal;font-variant-caps:normal;font-variant-numeric:normal;font-feature-settings:normal;text-align:end;writing-mode:lr-tb;text-anchor:end;stroke-width:0.32561234"
           d="m 185.7871,153.92293 c -0.79449,0 -1.58899,0 -2.38348,0 v 3.30822 h -2.81329 v -3.30822 c -0.7945,0 -1.60202,0 -2.38349,0 v 9.11714 c 0.78147,0 1.58899,0 2.38349,0 v -3.65988 h 2.81329 v 3.65988 c 0.79449,0 1.58899,0 2.38348,0 z"
           inkscape:connector-curvature="0" />
        <path
           id="path1014"
           style="font-style:normal;font-variant:normal;font-weight:normal;font-stretch:normal;font-size:13.02449417px;font-family:Intro;-inkscape-font-specification:'Intro, Normal';font-variant-ligatures:normal;font-variant-caps:normal;font-variant-numeric:normal;font-feature-settings:normal;text-align:end;writing-mode:lr-tb;text-anchor:end;stroke-width:0.32561234"
           d="m 193.55906,158.55965 v 4.48042 c 0.80752,0 1.61504,0 2.40953,0 v -9.15622 H 195.122 l -4.61067,4.50648 v -4.4674 c -0.7945,0 -1.58899,0 -2.38348,0 v 9.13017 h 0.83356 z"
           inkscape:connector-curvature="0" />
        <path
           id="path1016"
           style="font-style:normal;font-variant:normal;font-weight:normal;font-stretch:normal;font-size:13.02449417px;font-family:Intro;-inkscape-font-specification:'Intro, Normal';font-variant-ligatures:normal;font-variant-caps:normal;font-variant-numeric:normal;font-feature-settings:normal;text-align:end;writing-mode:lr-tb;text-anchor:end;stroke-width:0.32561234"
           d="m 202.70551,157.85632 -3.56871,-3.95944 h -0.85962 v 9.14319 c 0.7945,0 1.58899,0 2.38349,0 v -4.06364 l 1.92762,2.03182 h 0.26049 l 1.94065,-2.03182 v 4.06364 c 0.79449,0 1.58899,0 2.38348,0 v -9.14319 h -0.83356 z"
           inkscape:connector-curvature="0" />
        <path
           id="path1018"
           style="font-style:normal;font-variant:normal;font-weight:normal;font-stretch:normal;font-size:13.02449417px;font-family:Intro;-inkscape-font-specification:'Intro, Normal';font-variant-ligatures:normal;font-variant-caps:normal;font-variant-numeric:normal;font-feature-settings:normal;text-align:end;writing-mode:lr-tb;text-anchor:end;stroke-width:0.32561234"
           d="m 210.04319,163.04007 h 2.51372 l 4.32413,-8.76548 v -0.35166 h -2.52675 l -1.56294,3.36032 h -0.0651 l -1.71923,-3.36032 h -2.6049 v 0.35166 l 3.07378,5.57448 -1.43269,2.94354 z"
           inkscape:connector-curvature="0" />
        <path
           id="path1020"
           style="font-style:normal;font-variant:normal;font-weight:normal;font-stretch:normal;font-size:13.02449417px;font-family:Intro;-inkscape-font-specification:'Intro, Normal';font-variant-ligatures:normal;font-variant-caps:normal;font-variant-numeric:normal;font-feature-settings:normal;text-align:end;writing-mode:lr-tb;text-anchor:end;stroke-width:0.32561234"
           d="m 222.54751,157.85632 -3.56871,-3.95944 h -0.85961 v 9.14319 c 0.79449,0 1.58898,0 2.38348,0 v -4.06364 l 1.92762,2.03182 h 0.26049 l 1.94065,-2.03182 v 4.06364 c 0.7945,0 1.58899,0 2.38349,0 v -9.14319 h -0.83357 z"
           inkscape:connector-curvature="0" />
      </g>
      <rect
         y="144.70667"
         x="83.724525"
         height="12.303124"
         width="19.579166"
         id="rect929"
         style="opacity:1;fill:#333333;fill-opacity:1;stroke:none;stroke-width:0.79374999;stroke-linecap:round;stroke-linejoin:round;stroke-miterlimit:4;stroke-dasharray:none;stroke-opacity:1" />
      <rect
         style="opacity:1;fill:#cccccc;fill-opacity:1;stroke:none;stroke-width:0.68511784;stroke-linecap:round;stroke-linejoin:round;stroke-miterlimit:4;stroke-dasharray:none;stroke-opacity:1"
         id="rect950"
         width="16.899574"
         height="10.619327"
         x="85.064323"
         y="145.54857" />
      <path
         inkscape:connector-curvature="0"
         id="rect952"
         d="m 86.264425,146.88251 v 0.65474 H 100.7638 v -0.65474 z m 0,1.82417 v 0.65474 H 100.7638 v -0.65474 z m 0,1.82418 v 0.65474 H 100.7638 v -0.65474 z m 0,1.82418 v 0.65474 H 100.7638 v -0.65474 z m 0,1.82418 v 0.65474 H 100.7638 v -0.65474 z"
         style="opacity:1;fill:#808080;fill-opacity:1;stroke:none;stroke-width:1.21640337;stroke-linecap:round;stroke-linejoin:round;stroke-miterlimit:4;stroke-dasharray:none;stroke-opacity:1" />
      <path
         id="path1823"
         d="m 93.270652,121.80119 v 57.87109 c 0,0.0848 -0.0051,0.16514 -0.01242,0.24298 h 11.498608 v -45.20248 -1.28696 h -0.0878 a 11.24274,11.24274 0 0 0 -9.079356,-9.74765 v -1.87698 z"
         style="opacity:0.28300003;fill:#000000;fill-opacity:1;stroke:none;stroke-width:0.73322219;stroke-linecap:round;stroke-linejoin:round;stroke-miterlimit:4;stroke-dasharray:none;stroke-opacity:1"
         inkscape:connector-curvature="0" />
    </g>
  </g>
</svg>
