<svg xmlns="http://www.w3.org/2000/svg" width="24" height="24" viewBox="0 0 24 24"><g>
<path d="M13.276 1.862a.79.79 0 0 0 .794.785h5.294v18.706H14.07a.79.79 0 0 0-.794.785.79.79 0 0 0 .794.786h5.559c.73 0 1.323-.586 1.323-1.31V2.386c0-.723-.592-1.309-1.323-1.309H14.07a.79.79 0 0 0-.794.786z"/>
<path d="M3.053 12a.79.79 0 0 0 .794.786h10.678l-3.399 3.363a.78.78 0 0 0 .02 1.09.8.8 0 0 0 1.103.02l4.765-4.714a.78.78 0 0 0 0-1.11L12.249 6.72a.8.8 0 0 0-1.103.02.78.78 0 0 0-.02 1.09l3.4 3.384H3.846a.79.79 0 0 0-.794.786z"/>
</g></svg>
