<svg width="241" height="43" viewBox="0 0 241 43" fill="none" xmlns="http://www.w3.org/2000/svg">
<path d="M106.372 6.86133L104.121 11.9395C103.844 12.5612 103.59 13.012 103.359 13.292C103.128 13.5687 102.86 13.7721 102.554 13.9023C102.251 14.0326 101.883 14.0977 101.45 14.0977C101.073 14.0977 100.723 14.0488 100.4 13.9512V12.9014C100.719 13.0283 101.053 13.0918 101.401 13.0918C101.698 13.0918 101.945 13.0202 102.144 12.877C102.345 12.7305 102.528 12.4684 102.69 12.0908L100.059 6.86133H101.318L103.062 10.4404C103.218 10.779 103.314 11.0052 103.35 11.1191H103.398C103.418 11.0345 103.467 10.8994 103.545 10.7139L105.151 6.86133H106.372ZM108.208 8.59961V10.5723C108.208 11.1257 108.494 11.4023 109.067 11.4023C109.344 11.4023 109.614 11.3649 109.878 11.29C110.142 11.2119 110.425 11.0882 110.728 10.9189V8.59961H111.875V14H110.728V11.71C110.412 11.9053 110.106 12.0501 109.81 12.1445C109.517 12.2357 109.196 12.2812 108.848 12.2812C108.285 12.2812 107.845 12.1364 107.529 11.8467C107.214 11.5537 107.056 11.1452 107.056 10.6211V8.59961H108.208ZM115.874 14.0977C115.034 14.0977 114.377 13.8535 113.901 13.3652C113.429 12.8737 113.193 12.1982 113.193 11.3389C113.193 10.4567 113.413 9.76335 113.853 9.25879C114.292 8.75423 114.896 8.50195 115.664 8.50195C116.377 8.50195 116.94 8.71842 117.354 9.15137C117.767 9.58431 117.974 10.18 117.974 10.9385V11.5586H114.375C114.391 12.0827 114.533 12.4863 114.8 12.7695C115.067 13.0495 115.443 13.1895 115.928 13.1895C116.247 13.1895 116.543 13.1602 116.816 13.1016C117.093 13.0397 117.389 12.9388 117.705 12.7988V13.7314C117.425 13.8649 117.142 13.9593 116.855 14.0146C116.569 14.07 116.242 14.0977 115.874 14.0977ZM115.664 9.37109C115.299 9.37109 115.007 9.48665 114.785 9.71777C114.567 9.94889 114.437 10.2858 114.395 10.7285H116.846C116.839 10.2826 116.732 9.94564 116.523 9.71777C116.315 9.48665 116.029 9.37109 115.664 9.37109ZM118.965 10.7578C118.965 9.55339 119.168 8.62728 119.575 7.97949C119.985 7.33171 120.636 6.91504 121.528 6.72949C122.202 6.59277 122.979 6.45931 123.857 6.3291L124.019 7.33984C122.951 7.5026 122.17 7.62956 121.675 7.7207C121.164 7.8151 120.794 8.02507 120.566 8.35059C120.342 8.67611 120.212 9.16602 120.176 9.82031H120.249C120.435 9.55013 120.677 9.3418 120.977 9.19531C121.276 9.04557 121.597 8.9707 121.938 8.9707C122.603 8.9707 123.12 9.18066 123.491 9.60059C123.862 10.0205 124.048 10.6097 124.048 11.3682C124.048 12.2373 123.822 12.9095 123.369 13.3848C122.92 13.86 122.297 14.0977 121.499 14.0977C120.708 14.0977 120.088 13.8047 119.639 13.2188C119.189 12.6328 118.965 11.8125 118.965 10.7578ZM121.577 13.1602C122.43 13.1602 122.856 12.6003 122.856 11.4805C122.856 10.3997 122.471 9.85938 121.699 9.85938C121.488 9.85938 121.283 9.90495 121.084 9.99609C120.885 10.0872 120.701 10.2077 120.532 10.3574C120.366 10.5072 120.238 10.6618 120.146 10.8213C120.146 11.5895 120.269 12.1722 120.513 12.5693C120.757 12.9632 121.112 13.1602 121.577 13.1602ZM126.519 8.59961V10.7676H129.062V8.59961H130.21V14H129.062V11.6709H126.519V14H125.371V8.59961H126.519ZM133.003 10.7578H134.097C134.852 10.7578 135.41 10.888 135.771 11.1484C136.133 11.4089 136.313 11.7995 136.313 12.3203C136.313 12.877 136.125 13.2969 135.747 13.5801C135.373 13.86 134.823 14 134.097 14H131.855V8.59961H133.003V10.7578ZM135.176 12.3496C135.176 12.0794 135.075 11.8906 134.873 11.7832C134.674 11.6758 134.388 11.6221 134.014 11.6221H133.003V13.1504H133.867C134.329 13.1504 134.663 13.0853 134.868 12.9551C135.073 12.8249 135.176 12.623 135.176 12.3496ZM138.315 14H137.163V8.59961H138.315V14ZM141.06 8.59961V11.3682C141.06 11.6904 141.034 12.1641 140.981 12.7891L143.691 8.59961H145.093V14H143.989V11.2803C143.989 11.1305 143.997 10.888 144.014 10.5527C144.033 10.2174 144.049 9.97331 144.062 9.82031L141.362 14H139.961V8.59961H141.06ZM142.49 7.94043C141.8 7.94043 141.294 7.81673 140.972 7.56934C140.653 7.31868 140.475 6.90202 140.439 6.31934H141.479C141.499 6.55371 141.543 6.736 141.611 6.86621C141.683 6.99642 141.784 7.09082 141.914 7.14941C142.048 7.20475 142.249 7.23242 142.52 7.23242C142.839 7.23242 143.081 7.16243 143.247 7.02246C143.413 6.87923 143.514 6.64486 143.55 6.31934H144.609C144.561 6.87923 144.364 7.28939 144.019 7.5498C143.674 7.81022 143.164 7.94043 142.49 7.94043ZM154.136 13.1113H154.917V15.8994H153.838V14H149.326V8.59961H150.474V13.0918H152.988V8.59961H154.136V13.1113ZM158.257 14.0977C157.417 14.0977 156.759 13.8535 156.284 13.3652C155.812 12.8737 155.576 12.1982 155.576 11.3389C155.576 10.4567 155.796 9.76335 156.235 9.25879C156.675 8.75423 157.279 8.50195 158.047 8.50195C158.76 8.50195 159.323 8.71842 159.736 9.15137C160.15 9.58431 160.356 10.18 160.356 10.9385V11.5586H156.758C156.774 12.0827 156.916 12.4863 157.183 12.7695C157.45 13.0495 157.826 13.1895 158.311 13.1895C158.63 13.1895 158.926 13.1602 159.199 13.1016C159.476 13.0397 159.772 12.9388 160.088 12.7988V13.7314C159.808 13.8649 159.525 13.9593 159.238 14.0146C158.952 14.07 158.625 14.0977 158.257 14.0977ZM158.047 9.37109C157.682 9.37109 157.389 9.48665 157.168 9.71777C156.95 9.94889 156.82 10.2858 156.777 10.7285H159.229C159.222 10.2826 159.115 9.94564 158.906 9.71777C158.698 9.48665 158.411 9.37109 158.047 9.37109ZM162.808 8.59961V10.7676H165.352V8.59961H166.499V14H165.352V11.6709H162.808V14H161.66V8.59961H162.808ZM172.202 8.59961V9.49805H170.444V14H169.292V9.49805H167.534V8.59961H172.202ZM175.981 14.0977C175.298 14.0977 174.767 13.8519 174.39 13.3604H174.321C174.367 13.8161 174.39 14.0928 174.39 14.1904V16.4023H173.242V8.59961H174.17C174.196 8.70052 174.25 8.94141 174.331 9.32227H174.39C174.748 8.77539 175.285 8.50195 176.001 8.50195C176.675 8.50195 177.199 8.74609 177.573 9.23438C177.951 9.72266 178.14 10.4079 178.14 11.29C178.14 12.1722 177.948 12.8607 177.563 13.3555C177.183 13.8503 176.655 14.0977 175.981 14.0977ZM175.703 9.43945C175.247 9.43945 174.914 9.57292 174.702 9.83984C174.494 10.1068 174.39 10.5332 174.39 11.1191V11.29C174.39 11.9476 174.494 12.4245 174.702 12.7207C174.91 13.0137 175.251 13.1602 175.723 13.1602C176.12 13.1602 176.426 12.9974 176.641 12.6719C176.855 12.3464 176.963 11.8825 176.963 11.2803C176.963 10.6748 176.855 10.2174 176.641 9.9082C176.429 9.5957 176.117 9.43945 175.703 9.43945Z" fill="black"/>
<path d="M112.891 38L111.18 33.2422H104.629L102.953 38H100L106.41 20.7969H109.457L115.867 38H112.891ZM110.441 30.8281L108.836 26.1641C108.719 25.8516 108.555 25.3594 108.344 24.6875C108.141 24.0156 108 23.5234 107.922 23.2109C107.711 24.1719 107.402 25.2227 106.996 26.3633L105.449 30.8281H110.441ZM118.129 20.8672H123.215C125.574 20.8672 127.277 21.2109 128.324 21.8984C129.379 22.5859 129.906 23.6719 129.906 25.1562C129.906 26.1562 129.648 26.9883 129.133 27.6523C128.617 28.3164 127.875 28.7344 126.906 28.9062V29.0234C128.109 29.25 128.992 29.6992 129.555 30.3711C130.125 31.0352 130.41 31.9375 130.41 33.0781C130.41 34.6172 129.871 35.8242 128.793 36.6992C127.723 37.5664 126.23 38 124.316 38H118.129V20.8672ZM120.93 27.9453H123.625C124.797 27.9453 125.652 27.7617 126.191 27.3945C126.73 27.0195 127 26.3867 127 25.4961C127 24.6914 126.707 24.1094 126.121 23.75C125.543 23.3906 124.621 23.2109 123.355 23.2109H120.93V27.9453ZM120.93 30.2188V35.6445H123.906C125.078 35.6445 125.961 35.4219 126.555 34.9766C127.156 34.5234 127.457 33.8125 127.457 32.8438C127.457 31.9531 127.152 31.293 126.543 30.8633C125.934 30.4336 125.008 30.2188 123.766 30.2188H120.93ZM139.891 38H137.09V23.2695H132.051V20.8672H144.93V23.2695H139.891V38ZM162.777 29.4102C162.777 32.1992 162.078 34.3672 160.68 35.9141C159.289 37.4609 157.316 38.2344 154.762 38.2344C152.176 38.2344 150.188 37.4688 148.797 35.9375C147.414 34.3984 146.723 32.2148 146.723 29.3867C146.723 26.5586 147.418 24.3867 148.809 22.8711C150.207 21.3555 152.199 20.5977 154.785 20.5977C157.332 20.5977 159.301 21.3672 160.691 22.9062C162.082 24.4453 162.777 26.6133 162.777 29.4102ZM149.699 29.4102C149.699 31.5195 150.125 33.1211 150.977 34.2148C151.828 35.3008 153.09 35.8438 154.762 35.8438C156.426 35.8438 157.68 35.3047 158.523 34.2266C159.375 33.1484 159.801 31.543 159.801 29.4102C159.801 27.3086 159.379 25.7148 158.535 24.6289C157.699 23.543 156.449 23 154.785 23C153.105 23 151.836 23.543 150.977 24.6289C150.125 25.7148 149.699 27.3086 149.699 29.4102ZM177.801 26.0469C177.801 27.8359 177.215 29.207 176.043 30.1602C174.871 31.1133 173.203 31.5898 171.039 31.5898H169.258V38H166.457V20.8672H171.391C173.531 20.8672 175.133 21.3047 176.195 22.1797C177.266 23.0547 177.801 24.3438 177.801 26.0469ZM169.258 29.2344H170.746C172.184 29.2344 173.238 28.9844 173.91 28.4844C174.582 27.9844 174.918 27.2031 174.918 26.1406C174.918 25.1562 174.617 24.4219 174.016 23.9375C173.414 23.4531 172.477 23.2109 171.203 23.2109H169.258V29.2344Z" fill="black"/>
<path d="M83.6679 18.1089C81.7079 18.7457 79.6145 19.0845 77.4545 19.0845C75.1878 19.0845 73.0145 18.7186 70.9878 18.0276" stroke="black" stroke-width="3" stroke-miterlimit="10"/>
<path d="M63.6797 30.168L70.4931 19.084L77.3198 8L84.1332 19.084L90.96 30.168" stroke="black" stroke-width="3" stroke-miterlimit="10" stroke-linecap="round"/>
<path d="M70.6152 31.5769C70.6152 34.4495 73.7086 37.9997 77.3086 37.9997C80.922 37.9997 83.6687 34.436 83.6687 31.5769" stroke="black" stroke-width="3" stroke-miterlimit="10" stroke-linecap="round"/>
<path d="M92.9998 37.1054C86.8931 38.3249 83.6797 34.4495 83.6797 31.5769" stroke="black" stroke-width="3" stroke-miterlimit="10" stroke-linecap="round"/>
<path d="M61 37.1054C67.1067 38.3249 70.3201 34.4495 70.3201 31.5769" stroke="black" stroke-width="3" stroke-miterlimit="10" stroke-linecap="round"/>
</svg>
