<svg width="18" height="18" viewBox="0 0 18 18" fill="none" xmlns="http://www.w3.org/2000/svg">
<path d="M12.8484 17H5.15162C2.85803 17 1 15.142 1 12.8484V5.15162C1 2.85803 2.85803 1 5.15162 1H12.8484C15.142 1 17 2.85803 17 5.15162V12.8484C17 15.142 15.142 17 12.8484 17Z" stroke="white" stroke-miterlimit="10" stroke-linecap="round" stroke-linejoin="round"/>
<path d="M8.05191 6.52536L10.1856 7.87064L12.3193 9.21592L10.1856 10.5612L8.05191 11.9065V9.21592V6.52536ZM8.05191 5.42267C7.86996 5.42267 7.68802 5.46678 7.5171 5.5605C7.16424 5.75347 6.94922 6.12288 6.94922 6.52536V9.21592V11.9065C6.94922 12.309 7.16976 12.6784 7.5171 12.8713C7.68251 12.9651 7.86445 13.0092 8.05191 13.0092C8.2559 13.0092 8.4599 12.954 8.64184 12.8382L10.7755 11.493L12.9092 10.1477C13.229 9.94369 13.422 9.59083 13.422 9.21592C13.422 8.83549 13.229 8.48263 12.9092 8.28414L10.7755 6.93886L8.64184 5.59358C8.4599 5.48332 8.2559 5.42267 8.05191 5.42267Z" fill="white"/>
</svg>
